<svg width="38" height="26" viewBox="0 0 38 26" fill="none" xmlns="http://www.w3.org/2000/svg">
<path fill-rule="evenodd" clip-rule="evenodd" d="M2.58337 5.08329C2.58337 3.88668 3.55342 2.91663 4.75004 2.91663H22.1667C23.3633 2.91663 24.3334 3.88668 24.3334 5.08329V13V20.9166C24.3334 22.1132 23.3633 23.0833 22.1667 23.0833H4.75004C3.55342 23.0833 2.58337 22.1132 2.58337 20.9166V5.08329ZM26.3334 11.0569V5.08329C26.3334 2.78211 24.4679 0.916626 22.1667 0.916626H4.75004C2.44885 0.916626 0.583374 2.78211 0.583374 5.08329V20.9166C0.583374 23.2178 2.44885 25.0833 4.75004 25.0833H22.1667C24.4679 25.0833 26.3334 23.2178 26.3334 20.9166V14.9432L35.8355 21.7304C36.1403 21.9482 36.5412 21.9773 36.8743 21.8059C37.2074 21.6345 37.4167 21.2913 37.4167 20.9167V5.08337C37.4167 4.70879 37.2074 4.36561 36.8743 4.19421C36.5412 4.0228 36.1403 4.05192 35.8355 4.26964L26.3334 11.0569ZM35.4167 18.9735L27.0538 13L35.4167 7.02656V18.9735Z" fill="#D957DB"/>
</svg>
