<svg width="32" height="34" viewBox="0 0 32 34" fill="none" xmlns="http://www.w3.org/2000/svg">
<path fill-rule="evenodd" clip-rule="evenodd" d="M17.9815 0.249258C18.3888 0.426027 18.6307 0.850096 18.5756 1.29059L17.1328 12.8332H30.25C30.638 12.8332 30.991 13.0577 31.1556 13.4091C31.3202 13.7605 31.2666 14.1753 31.0182 14.4734L15.1849 33.4734C14.9007 33.8144 14.4257 33.9273 14.0185 33.7505C13.6113 33.5738 13.3693 33.1497 13.4244 32.7092L14.8672 21.1666H1.75001C1.36199 21.1666 1.009 20.9421 0.844423 20.5907C0.679843 20.2393 0.733388 19.8245 0.981791 19.5264L16.8151 0.526375C17.0993 0.185341 17.5743 0.0724896 17.9815 0.249258ZM3.88505 19.1666H16C16.2868 19.1666 16.5599 19.2897 16.7497 19.5048C16.9395 19.7198 17.0279 20.006 16.9923 20.2906L15.832 29.5728L28.115 14.8332H16C15.7132 14.8332 15.4402 14.7101 15.2503 14.495C15.0605 14.28 14.9722 13.9938 15.0077 13.7092L16.168 4.42702L3.88505 19.1666Z" fill="#D957DB"/>
</svg>
