<svg width="38" height="32" viewBox="0 0 38 32" fill="none" xmlns="http://www.w3.org/2000/svg">
<path fill-rule="evenodd" clip-rule="evenodd" d="M14.25 0.75C13.9157 0.75 13.6035 0.917101 13.418 1.1953L10.5482 5.5H4.75004C3.64497 5.5 2.58516 5.93899 1.80376 6.72039C1.02236 7.50179 0.583374 8.5616 0.583374 9.66667V27.0833C0.583374 28.1884 1.02236 29.2482 1.80376 30.0296C2.58516 30.811 3.64497 31.25 4.75004 31.25H33.25C34.3551 31.25 35.4149 30.811 36.1963 30.0296C36.9777 29.2482 37.4167 28.1884 37.4167 27.0833V9.66667C37.4167 8.5616 36.9777 7.50179 36.1963 6.72039C35.4149 5.93899 34.3551 5.5 33.25 5.5H27.4519L24.5821 1.1953C24.3966 0.917101 24.0844 0.75 23.75 0.75H14.25ZM11.9154 7.0547L14.7852 2.75H23.2149L26.0847 7.0547C26.2701 7.3329 26.5824 7.5 26.9167 7.5H33.25C33.8247 7.5 34.3758 7.72827 34.7821 8.1346C35.1884 8.54093 35.4167 9.09203 35.4167 9.66667V27.0833C35.4167 27.658 35.1884 28.2091 34.7821 28.6154C34.3758 29.0217 33.8247 29.25 33.25 29.25H4.75004C4.17541 29.25 3.62431 29.0217 3.21798 28.6154C2.81165 28.2091 2.58337 27.658 2.58337 27.0833V9.66667C2.58337 9.09203 2.81165 8.54093 3.21798 8.1346C3.6243 7.72827 4.1754 7.5 4.75004 7.5H11.0834C11.4177 7.5 11.73 7.3329 11.9154 7.0547ZM13.6666 17.5833C13.6666 14.6378 16.0544 12.25 19 12.25C21.9455 12.25 24.3333 14.6378 24.3333 17.5833C24.3333 20.5289 21.9455 22.9167 19 22.9167C16.0544 22.9167 13.6666 20.5289 13.6666 17.5833ZM19 10.25C14.9499 10.25 11.6666 13.5332 11.6666 17.5833C11.6666 21.6334 14.9499 24.9167 19 24.9167C23.05 24.9167 26.3333 21.6334 26.3333 17.5833C26.3333 13.5332 23.05 10.25 19 10.25Z" fill="#D957DB"/>
</svg>
