<?xml version="1.0" encoding="UTF-8" standalone="no"?>
<!DOCTYPE svg PUBLIC "-//W3C//DTD SVG 1.1//EN" "http://www.w3.org/Graphics/SVG/1.1/DTD/svg11.dtd">
<svg width="100%" height="100%" viewBox="0 0 259 46" version="1.1" xmlns="http://www.w3.org/2000/svg" xmlns:xlink="http://www.w3.org/1999/xlink" xml:space="preserve" xmlns:serif="http://www.serif.com/" style="fill-rule:evenodd;clip-rule:evenodd;stroke-linejoin:round;stroke-miterlimit:2;">
    <g transform="matrix(1,0,0,1,-195.197,-236.657)">
        <g transform="matrix(1,0,0,1,-37.9646,0)">
            <path d="M233.162,271.567L233.162,236.657L247.139,236.657C249.708,236.657 251.85,237.038 253.565,237.799C255.281,238.561 256.571,239.615 257.435,240.961C258.298,242.308 258.73,243.856 258.73,245.606C258.73,246.97 258.458,248.166 257.912,249.194C257.367,250.223 256.619,251.064 255.671,251.717C254.722,252.37 253.639,252.834 252.423,253.106L252.423,253.447C253.753,253.504 255,253.879 256.165,254.572C257.33,255.265 258.276,256.234 259.003,257.478C259.73,258.723 260.094,260.203 260.094,261.919C260.094,263.771 259.636,265.422 258.722,266.87C257.807,268.319 256.458,269.464 254.673,270.305C252.889,271.146 250.69,271.567 248.077,271.567L233.162,271.567ZM240.543,265.532L246.56,265.532C248.617,265.532 250.117,265.138 251.06,264.348C252.003,263.558 252.475,262.504 252.475,261.186C252.475,260.22 252.242,259.368 251.776,258.629C251.31,257.89 250.648,257.311 249.79,256.89C248.932,256.47 247.912,256.26 246.73,256.26L240.543,256.26L240.543,265.532ZM240.543,251.265L246.014,251.265C247.026,251.265 247.926,251.086 248.716,250.728C249.506,250.37 250.131,249.862 250.591,249.203C251.051,248.544 251.281,247.754 251.281,246.834C251.281,245.572 250.835,244.555 249.943,243.782C249.051,243.01 247.787,242.623 246.151,242.623L240.543,242.623L240.543,251.265Z" style="fill:rgb(21,26,35);fill-rule:nonzero;"/>
            <path d="M265.947,271.567L265.947,245.385L272.987,245.385L272.987,249.953L273.26,249.953C273.737,248.328 274.538,247.098 275.663,246.263C276.788,245.427 278.084,245.01 279.55,245.01C279.913,245.01 280.305,245.032 280.726,245.078C281.146,245.123 281.515,245.186 281.834,245.265L281.834,251.709C281.493,251.606 281.021,251.515 280.419,251.436C279.817,251.356 279.265,251.317 278.765,251.317C277.697,251.317 276.746,251.547 275.91,252.007C275.075,252.467 274.416,253.106 273.933,253.924C273.45,254.743 273.209,255.686 273.209,256.754L273.209,271.567L265.947,271.567Z" style="fill:rgb(21,26,35);fill-rule:nonzero;"/>
            <path d="M293.5,272.061C291.829,272.061 290.34,271.768 289.034,271.183C287.727,270.598 286.696,269.728 285.94,268.575C285.184,267.422 284.806,265.981 284.806,264.254C284.806,262.799 285.073,261.578 285.608,260.589C286.142,259.601 286.869,258.805 287.789,258.203C288.71,257.601 289.758,257.146 290.934,256.839C292.11,256.532 293.346,256.317 294.642,256.192C296.164,256.032 297.392,255.882 298.323,255.74C299.255,255.598 299.931,255.385 300.352,255.101C300.772,254.817 300.983,254.396 300.983,253.839L300.983,253.737C300.983,252.657 300.644,251.822 299.968,251.231C299.292,250.64 298.335,250.345 297.096,250.345C295.789,250.345 294.75,250.632 293.977,251.206C293.204,251.78 292.693,252.498 292.443,253.362L285.727,252.817C286.068,251.226 286.738,249.848 287.738,248.683C288.738,247.518 290.031,246.62 291.616,245.99C293.201,245.359 295.039,245.044 297.13,245.044C298.585,245.044 299.98,245.214 301.315,245.555C302.65,245.896 303.838,246.424 304.877,247.14C305.917,247.856 306.738,248.774 307.34,249.893C307.943,251.013 308.244,252.351 308.244,253.907L308.244,271.567L301.358,271.567L301.358,267.936L301.153,267.936C300.733,268.754 300.17,269.473 299.465,270.092C298.761,270.711 297.914,271.194 296.926,271.541C295.937,271.888 294.795,272.061 293.5,272.061ZM295.579,267.049C296.647,267.049 297.59,266.836 298.409,266.41C299.227,265.984 299.869,265.407 300.335,264.68C300.801,263.953 301.034,263.129 301.034,262.209L301.034,259.43C300.806,259.578 300.497,259.711 300.105,259.831C299.713,259.95 299.272,260.058 298.784,260.155C298.295,260.251 297.806,260.336 297.318,260.41C296.829,260.484 296.386,260.549 295.988,260.606C295.136,260.731 294.392,260.93 293.755,261.203C293.119,261.476 292.625,261.842 292.272,262.302C291.92,262.763 291.744,263.334 291.744,264.015C291.744,265.004 292.105,265.757 292.826,266.274C293.548,266.791 294.465,267.049 295.579,267.049Z" style="fill:rgb(21,26,35);fill-rule:nonzero;"/>
            <path d="M322.347,256.43L322.347,271.567L315.086,271.567L315.086,245.385L322.006,245.385L322.006,250.004L322.313,250.004C322.893,248.481 323.864,247.274 325.228,246.382C326.592,245.49 328.245,245.044 330.188,245.044C332.006,245.044 333.592,245.442 334.944,246.237C336.296,247.032 337.347,248.166 338.097,249.638C338.847,251.109 339.222,252.862 339.222,254.896L339.222,271.567L331.961,271.567L331.961,256.192C331.972,254.589 331.563,253.336 330.734,252.433C329.904,251.53 328.762,251.078 327.308,251.078C326.33,251.078 325.469,251.288 324.725,251.709C323.981,252.129 323.401,252.74 322.986,253.541C322.572,254.342 322.359,255.305 322.347,256.43Z" style="fill:rgb(21,26,35);fill-rule:nonzero;"/>
            <path d="M355.78,271.993C353.792,271.993 351.993,271.478 350.385,270.45C348.777,269.422 347.505,267.905 346.567,265.899C345.63,263.893 345.161,261.43 345.161,258.51C345.161,255.51 345.644,253.013 346.61,251.018C347.576,249.024 348.863,247.53 350.471,246.535C352.079,245.541 353.843,245.044 355.763,245.044C357.229,245.044 358.454,245.291 359.436,245.785C360.419,246.28 361.215,246.893 361.823,247.626C362.431,248.359 362.894,249.078 363.212,249.782L363.434,249.782L363.434,236.657L370.678,236.657L370.678,271.567L363.519,271.567L363.519,267.373L363.212,267.373C362.871,268.101 362.391,268.819 361.772,269.53C361.152,270.24 360.351,270.828 359.368,271.294C358.385,271.76 357.189,271.993 355.78,271.993ZM358.081,266.214C359.252,266.214 360.243,265.893 361.056,265.251C361.868,264.609 362.493,263.709 362.931,262.549C363.368,261.39 363.587,260.032 363.587,258.476C363.587,256.919 363.371,255.567 362.939,254.419C362.508,253.271 361.883,252.385 361.064,251.76C360.246,251.135 359.252,250.822 358.081,250.822C356.888,250.822 355.883,251.146 355.064,251.794C354.246,252.442 353.627,253.339 353.206,254.487C352.786,255.635 352.576,256.964 352.576,258.476C352.576,259.998 352.789,261.342 353.215,262.507C353.641,263.672 354.26,264.581 355.073,265.234C355.885,265.888 356.888,266.214 358.081,266.214Z" style="fill:rgb(21,26,35);fill-rule:nonzero;"/>
            <rect x="390.158" y="236.657" width="7.261" height="34.909" style="fill:rgb(21,26,35);fill-rule:nonzero;"/>
            <path d="M416.244,272.078C413.596,272.078 411.309,271.513 409.383,270.382C407.457,269.251 405.971,267.672 404.926,265.643C403.88,263.615 403.358,261.26 403.358,258.578C403.358,255.873 403.88,253.507 404.926,251.478C405.971,249.45 407.457,247.87 409.383,246.74C411.309,245.609 413.596,245.044 416.244,245.044C418.892,245.044 421.179,245.609 423.105,246.74C425.031,247.87 426.517,249.45 427.562,251.478C428.608,253.507 429.13,255.873 429.13,258.578C429.13,261.26 428.608,263.615 427.562,265.643C426.517,267.672 425.031,269.251 423.105,270.382C421.179,271.513 418.892,272.078 416.244,272.078ZM416.278,266.453C417.483,266.453 418.488,266.109 419.295,265.422C420.102,264.734 420.713,263.794 421.127,262.601C421.542,261.407 421.75,260.049 421.75,258.527C421.75,257.004 421.542,255.646 421.127,254.453C420.713,253.26 420.102,252.317 419.295,251.623C418.488,250.93 417.483,250.584 416.278,250.584C415.062,250.584 414.042,250.93 413.218,251.623C412.394,252.317 411.775,253.26 411.36,254.453C410.946,255.646 410.738,257.004 410.738,258.527C410.738,260.049 410.946,261.407 411.36,262.601C411.775,263.794 412.394,264.734 413.218,265.422C414.042,266.109 415.062,266.453 416.278,266.453Z" style="fill:rgb(21,26,35);fill-rule:nonzero;"/>
            <path d="M446.864,281.93C444.512,281.93 442.498,281.609 440.822,280.967C439.146,280.325 437.813,279.453 436.825,278.351C435.836,277.248 435.194,276.01 434.898,274.635L441.614,273.731C441.819,274.254 442.143,274.743 442.586,275.197C443.029,275.652 443.617,276.018 444.35,276.297C445.083,276.575 445.978,276.714 447.035,276.714C448.614,276.714 449.918,276.331 450.947,275.564C451.975,274.797 452.489,273.515 452.489,271.72L452.489,266.93L452.183,266.93C451.864,267.657 451.387,268.345 450.751,268.993C450.114,269.64 449.296,270.169 448.296,270.578C447.296,270.987 446.103,271.192 444.717,271.192C442.751,271.192 440.964,270.734 439.356,269.819C437.748,268.905 436.469,267.501 435.521,265.609C434.572,263.717 434.097,261.322 434.097,258.424C434.097,255.459 434.58,252.981 435.546,250.993C436.512,249.004 437.799,247.515 439.407,246.527C441.015,245.538 442.779,245.044 444.7,245.044C446.165,245.044 447.393,245.291 448.381,245.785C449.37,246.28 450.168,246.893 450.776,247.626C451.384,248.359 451.853,249.078 452.183,249.782L452.455,249.782L452.455,245.385L459.665,245.385L459.665,271.822C459.665,274.049 459.12,275.913 458.029,277.413C456.938,278.913 455.43,280.041 453.504,280.797C451.577,281.552 449.364,281.93 446.864,281.93ZM447.018,265.737C448.188,265.737 449.18,265.444 449.992,264.859C450.805,264.274 451.43,263.433 451.867,262.336C452.305,261.24 452.523,259.924 452.523,258.39C452.523,256.856 452.308,255.524 451.876,254.393C451.444,253.263 450.819,252.385 450.001,251.76C449.183,251.135 448.188,250.822 447.018,250.822C445.825,250.822 444.819,251.143 444.001,251.785C443.183,252.427 442.563,253.317 442.143,254.453C441.722,255.589 441.512,256.902 441.512,258.39C441.512,259.902 441.725,261.206 442.151,262.302C442.577,263.399 443.197,264.245 444.009,264.842C444.822,265.439 445.825,265.737 447.018,265.737Z" style="fill:rgb(21,26,35);fill-rule:nonzero;"/>
            <path d="M478.49,272.078C475.843,272.078 473.556,271.513 471.63,270.382C469.704,269.251 468.218,267.672 467.172,265.643C466.127,263.615 465.604,261.26 465.604,258.578C465.604,255.873 466.127,253.507 467.172,251.478C468.218,249.45 469.704,247.87 471.63,246.74C473.556,245.609 475.843,245.044 478.49,245.044C481.138,245.044 483.425,245.609 485.351,246.74C487.277,247.87 488.763,249.45 489.809,251.478C490.854,253.507 491.377,255.873 491.377,258.578C491.377,261.26 490.854,263.615 489.809,265.643C488.763,267.672 487.277,269.251 485.351,270.382C483.425,271.513 481.138,272.078 478.49,272.078ZM478.525,266.453C479.729,266.453 480.735,266.109 481.542,265.422C482.348,264.734 482.959,263.794 483.374,262.601C483.789,261.407 483.996,260.049 483.996,258.527C483.996,257.004 483.789,255.646 483.374,254.453C482.959,253.26 482.348,252.317 481.542,251.623C480.735,250.93 479.729,250.584 478.525,250.584C477.309,250.584 476.289,250.93 475.465,251.623C474.641,252.317 474.022,253.26 473.607,254.453C473.192,255.646 472.985,257.004 472.985,258.527C472.985,260.049 473.192,261.407 473.607,262.601C474.022,263.794 474.641,264.734 475.465,265.422C476.289,266.109 477.309,266.453 478.525,266.453Z" style="fill:rgb(21,26,35);fill-rule:nonzero;"/>
        </g>
    </g>
</svg>
