<?xml version="1.0" encoding="UTF-8" standalone="no"?>
<!DOCTYPE svg PUBLIC "-//W3C//DTD SVG 1.1//EN" "http://www.w3.org/Graphics/SVG/1.1/DTD/svg11.dtd">
<svg width="100%" height="100%" viewBox="0 0 1081 793" version="1.1" xmlns="http://www.w3.org/2000/svg" xmlns:xlink="http://www.w3.org/1999/xlink" xml:space="preserve" xmlns:serif="http://www.serif.com/" style="fill-rule:evenodd;clip-rule:evenodd;stroke-linejoin:round;stroke-miterlimit:2;">
    <g transform="matrix(1,0,0,1,-8644.88,-844.341)">
        <g transform="matrix(1,0,0,1,3715.2,0.50041)">
            <g transform="matrix(1,0,0,1,118.258,-9.14788)">
                <g transform="matrix(1.46028,0,0,1.43989,2317.92,564.714)">
                    <path d="M2010.71,662.324C2001.71,664.161 1992.39,665.132 1982.85,665.132C1906.24,665.132 1843.91,602.803 1843.91,526.191C1843.91,449.574 1906.24,387.245 1982.85,387.245C1992.39,387.245 2001.71,388.211 2010.71,390.053L2010.71,266.557L1901.92,266.557C1895.49,266.557 1890.28,271.707 1890.13,278.107L1846,310.524L1804.14,310.524C1804.36,309.624 1804.51,308.695 1804.51,307.728C1804.51,301.203 1799.22,295.916 1792.69,295.916L1751.34,295.916C1744.82,295.916 1739.53,301.203 1739.53,307.728C1739.53,308.695 1739.68,309.624 1739.9,310.524L1719.36,310.524C1712.84,310.524 1707.55,315.811 1707.55,322.336L1707.55,404.928L1874.28,404.928L1857.61,421.595L1707.55,421.595L1707.55,623.432C1707.55,629.953 1712.84,635.241 1719.36,635.241L1868.38,635.241C1897.18,665.47 1937.8,684.336 1982.85,684.336C1992.36,684.336 2001.66,683.449 2010.71,681.845L2010.71,662.324ZM1982.85,449.208C1992.69,449.208 2002.06,451.121 2010.71,454.487L2010.71,411.429C2001.77,409.258 1992.45,408.079 1982.85,408.079C1917.73,408.079 1864.74,461.062 1864.74,526.191C1864.74,591.316 1917.73,644.3 1982.85,644.3C1992.45,644.3 2001.77,643.121 2010.71,640.95L2010.71,597.891C2002.06,601.254 1992.69,603.171 1982.85,603.171C1940.33,603.171 1905.87,568.704 1905.87,526.191C1905.87,483.671 1940.33,449.208 1982.85,449.208ZM1910.49,277.699L2003.75,277.699C2006.3,277.699 2008.37,279.766 2008.37,282.316C2008.37,284.866 2006.3,286.932 2003.75,286.932L1910.49,286.932C1907.93,286.932 1905.87,284.866 1905.87,282.316C1905.87,279.766 1907.93,277.699 1910.49,277.699Z" style="fill:rgb(33,16,51);fill-rule:nonzero;"/>
                </g>
                <g transform="matrix(-6.08449,0,0,5.25738,5858.54,-2566.14)">
                    <rect x="92.897" y="650.348" width="10.669" height="150.766" style="fill:rgb(142,38,131);"/>
                </g>
                <g transform="matrix(0.759212,0,0,0.759212,3686.12,627.25)">
                    <g transform="matrix(1.02723,0,0,1.3269,342.246,-1126.76)">
                        <rect x="1787.87" y="1597.47" width="707.876" height="218.274" style="fill:rgb(141,44,130);"/>
                    </g>
                    <g transform="matrix(0.969865,0,0,0.969865,344.6,-203.896)">
                        <path d="M2016.33,1308.92C2031.08,1308.92 2041.75,1312.97 2048.33,1321.06C2054.91,1329.15 2058.19,1340.3 2058.19,1354.53L2058.19,1376.92C2058.19,1391.86 2054.68,1403.1 2047.66,1410.66C2040.64,1418.21 2029.66,1421.99 2014.73,1421.99L1996.33,1421.99L1996.33,1495.59L1975.53,1495.59L1975.53,1308.92L2016.33,1308.92ZM2014.73,1403.33C2022.55,1403.33 2028.33,1401.41 2032.06,1397.59C2035.79,1393.77 2037.66,1387.33 2037.66,1378.26L2037.66,1353.46C2037.66,1344.92 2036.02,1338.53 2032.73,1334.26C2029.44,1329.99 2023.97,1327.86 2016.33,1327.86L1996.33,1327.86L1996.33,1403.33L2014.73,1403.33Z" style="fill:white;fill-rule:nonzero;"/>
                        <path d="M2101.93,1495.59L2101.93,1308.92L2122.73,1308.92L2122.73,1476.66L2176.06,1476.66L2176.06,1495.59L2101.93,1495.59Z" style="fill:white;fill-rule:nonzero;"/>
                        <path d="M2300.33,1495.59L2215.53,1495.59L2215.53,1476.92L2279.53,1327.86L2218.46,1327.86L2218.46,1308.92L2300.86,1308.92L2300.86,1327.59L2236.59,1476.66L2300.33,1476.66L2300.33,1495.59Z" style="fill:white;fill-rule:nonzero;"/>
                        <path d="M2412.59,1391.59L2412.59,1410.26L2366.99,1410.26L2366.99,1476.66L2422.99,1476.66L2422.99,1495.59L2346.19,1495.59L2346.19,1308.92L2422.99,1308.92L2422.99,1327.86L2366.99,1327.86L2366.99,1391.59L2412.59,1391.59Z" style="fill:white;fill-rule:nonzero;"/>
                        <path d="M2498.73,1271.06L2512.86,1287.06L2526.99,1271.06L2545.13,1271.06L2522.19,1297.99L2503.79,1297.99L2480.59,1271.06L2498.73,1271.06ZM2487.26,1495.59L2468.59,1495.59L2468.59,1308.92L2494.99,1308.92L2538.19,1443.86L2538.19,1308.92L2556.59,1308.92L2556.59,1495.59L2534.99,1495.59L2487.26,1344.66L2487.26,1495.59Z" style="fill:white;fill-rule:nonzero;"/>
                    </g>
                </g>
                <g transform="matrix(1.03025,0,0,1.03025,2864.21,416.229)">
                    <path d="M2432.72,551.57L2470.58,551.57L2470.58,578.236L2432.72,578.236L2432.72,655.303L2403.38,655.303L2403.38,468.636L2480.98,468.636L2480.98,495.303L2432.72,495.303L2432.72,551.57Z" style="fill:rgb(33,16,51);fill-rule:nonzero;"/>
                    <path d="M2528.72,612.37C2528.72,619.125 2530.1,623.881 2532.85,626.636C2535.61,629.392 2539.3,630.77 2543.92,630.77C2548.54,630.77 2552.23,629.392 2554.98,626.636C2557.74,623.881 2559.12,619.125 2559.12,612.37L2559.12,511.57C2559.12,504.814 2557.74,500.059 2554.98,497.303C2552.23,494.548 2548.54,493.17 2543.92,493.17C2539.3,493.17 2535.61,494.548 2532.85,497.303C2530.1,500.059 2528.72,504.814 2528.72,511.57L2528.72,612.37ZM2499.38,513.436C2499.38,498.325 2503.21,486.725 2510.85,478.636C2518.49,470.548 2529.52,466.503 2543.92,466.503C2558.32,466.503 2569.34,470.548 2576.98,478.636C2584.63,486.725 2588.45,498.325 2588.45,513.436L2588.45,610.503C2588.45,625.614 2584.63,637.214 2576.98,645.303C2569.34,653.392 2558.32,657.436 2543.92,657.436C2529.52,657.436 2518.49,653.392 2510.85,645.303C2503.21,637.214 2499.38,625.614 2499.38,610.503L2499.38,513.436Z" style="fill:rgb(33,16,51);fill-rule:nonzero;"/>
                    <path d="M2605.52,468.636L2696.18,468.636L2696.18,495.303L2665.52,495.303L2665.52,655.303L2636.18,655.303L2636.18,495.303L2605.52,495.303L2605.52,468.636Z" style="fill:rgb(33,16,51);fill-rule:nonzero;"/>
                    <path d="M2742.58,612.37C2742.58,619.125 2743.96,623.881 2746.72,626.636C2749.47,629.392 2753.16,630.77 2757.78,630.77C2762.41,630.77 2766.1,629.392 2768.85,626.636C2771.61,623.881 2772.98,619.125 2772.98,612.37L2772.98,511.57C2772.98,504.814 2771.61,500.059 2768.85,497.303C2766.1,494.548 2762.41,493.17 2757.78,493.17C2753.16,493.17 2749.47,494.548 2746.72,497.303C2743.96,500.059 2742.58,504.814 2742.58,511.57L2742.58,612.37ZM2713.25,513.436C2713.25,498.325 2717.07,486.725 2724.72,478.636C2732.36,470.548 2743.38,466.503 2757.78,466.503C2772.18,466.503 2783.21,470.548 2790.85,478.636C2798.49,486.725 2802.32,498.325 2802.32,513.436L2802.32,610.503C2802.32,625.614 2798.49,637.214 2790.85,645.303C2783.21,653.392 2772.18,657.436 2757.78,657.436C2743.38,657.436 2732.36,653.392 2724.72,645.303C2717.07,637.214 2713.25,625.614 2713.25,610.503L2713.25,513.436Z" style="fill:rgb(33,16,51);fill-rule:nonzero;"/>
                </g>
                <g transform="matrix(1.03025,0,0,1.03025,2864.21,658.781)">
                    <path d="M2432.72,551.57L2470.58,551.57L2470.58,578.236L2432.72,578.236L2432.72,655.303L2403.38,655.303L2403.38,468.636L2480.98,468.636L2480.98,495.303L2432.72,495.303L2432.72,551.57Z" style="fill:rgb(33,16,51);fill-rule:nonzero;"/>
                    <path d="M2531.12,547.303L2571.38,547.303L2571.38,573.97L2531.12,573.97L2531.12,628.636L2581.78,628.636L2581.78,655.303L2501.78,655.303L2501.78,468.636L2581.78,468.636L2581.78,495.303L2531.12,495.303L2531.12,547.303Z" style="fill:rgb(33,16,51);fill-rule:nonzero;"/>
                    <path d="M2602.85,513.436C2602.85,498.325 2606.45,486.725 2613.65,478.636C2620.85,470.548 2631.65,466.503 2646.05,466.503C2660.45,466.503 2671.25,470.548 2678.45,478.636C2685.65,486.725 2689.25,498.325 2689.25,513.436L2689.25,519.303L2661.52,519.303L2661.52,511.57C2661.52,504.814 2660.23,500.059 2657.65,497.303C2655.07,494.548 2651.47,493.17 2646.85,493.17C2642.23,493.17 2638.63,494.548 2636.05,497.303C2633.47,500.059 2632.18,504.814 2632.18,511.57C2632.18,517.97 2633.61,523.614 2636.45,528.503C2639.3,533.392 2642.85,538.014 2647.12,542.37C2651.38,546.725 2655.96,551.081 2660.85,555.436C2665.74,559.792 2670.32,564.548 2674.58,569.703C2678.85,574.859 2682.41,580.725 2685.25,587.303C2688.1,593.881 2689.52,601.614 2689.52,610.503C2689.52,625.614 2685.83,637.214 2678.45,645.303C2671.07,653.392 2660.18,657.436 2645.78,657.436C2631.38,657.436 2620.49,653.392 2613.12,645.303C2605.74,637.214 2602.05,625.614 2602.05,610.503L2602.05,599.036L2629.78,599.036L2629.78,612.37C2629.78,619.125 2631.16,623.836 2633.92,626.503C2636.67,629.17 2640.36,630.503 2644.98,630.503C2649.61,630.503 2653.3,629.17 2656.05,626.503C2658.81,623.836 2660.18,619.125 2660.18,612.37C2660.18,605.97 2658.76,600.325 2655.92,595.436C2653.07,590.548 2649.52,585.925 2645.25,581.57C2640.98,577.214 2636.41,572.859 2631.52,568.503C2626.63,564.148 2622.05,559.392 2617.78,554.236C2613.52,549.081 2609.96,543.214 2607.12,536.636C2604.27,530.059 2602.85,522.325 2602.85,513.436Z" style="fill:rgb(33,16,51);fill-rule:nonzero;"/>
                    <path d="M2704.45,468.636L2795.12,468.636L2795.12,495.303L2764.45,495.303L2764.45,655.303L2735.12,655.303L2735.12,495.303L2704.45,495.303L2704.45,468.636Z" style="fill:rgb(33,16,51);fill-rule:nonzero;"/>
                </g>
            </g>
        </g>
    </g>
</svg>
