<?xml version="1.0" standalone="no"?>
<!DOCTYPE svg PUBLIC "-//W3C//DTD SVG 20010904//EN"
 "http://www.w3.org/TR/2001/REC-SVG-20010904/DTD/svg10.dtd">
<svg version="1.0" xmlns="http://www.w3.org/2000/svg"
 width="1024.000000pt" height="1024.000000pt" viewBox="0 0 1024.000000 1024.000000"
 preserveAspectRatio="xMidYMid meet">
<metadata>
Created by potrace 1.14, written by Peter Selinger 2001-2017
</metadata>
<g transform="translate(0.000000,1024.000000) scale(0.100000,-0.100000)"
fill="#000000" stroke="none">
<path d="M0 5120 l0 -5120 5120 0 5120 0 0 5120 0 5120 -5120 0 -5120 0 0
-5120z m4660 0 l0 -3090 -250 0 -250 0 0 368 0 369 -162 6 c-236 10 -390 39
-591 111 -217 79 -399 190 -594 363 l-82 73 -863 0 c-844 0 -864 1 -896 20
-18 11 -41 34 -52 52 -20 32 -20 53 -20 1186 l0 1152 858 0 857 0 90 90 90 90
-948 0 -947 0 0 483 c0 460 1 483 20 514 36 60 60 68 210 71 134 4 137 4 133
25 -5 31 28 88 67 115 32 21 39 22 304 22 251 0 273 -2 303 -20 42 -25 66 -64
67 -106 l1 -34 240 0 240 0 240 174 c212 154 243 180 265 223 14 26 40 58 59
70 l34 23 538 0 539 0 0 370 0 370 250 0 250 0 0 -3090z m1672 2723 c65 -29
132 -101 160 -171 23 -56 23 -62 26 -540 2 -413 1 -492 -13 -545 -42 -165
-159 -250 -345 -250 -143 0 -246 50 -306 151 -53 88 -56 120 -52 647 3 431 5
485 21 525 38 97 101 160 192 193 72 25 251 20 317 -10z m1720 0 c65 -29 132
-101 160 -171 23 -56 23 -62 26 -537 3 -342 0 -496 -8 -535 -37 -169 -155
-261 -340 -263 -195 -2 -312 81 -355 250 -14 53 -15 132 -13 545 3 477 3 484
26 536 41 98 93 149 186 183 73 27 250 23 318 -8z m-2394 -95 l3 -108 -196 0
-195 0 0 -225 0 -225 150 0 150 0 0 -110 0 -110 -150 0 -150 0 0 -310 0 -310
-120 0 -120 0 0 755 0 755 313 -2 312 -3 3 -107z m1732 2 l0 -110 -125 0 -125
0 0 -645 0 -645 -120 0 -120 0 0 645 0 645 -125 0 -125 0 0 110 0 110 370 0
370 0 0 -110z m-295 -1784 c72 -19 108 -40 149 -87 50 -59 77 -137 84 -241 l5
-88 -117 0 -116 0 0 60 c0 88 -19 126 -70 141 -53 16 -107 3 -133 -32 -15 -21
-19 -43 -19 -101 0 -112 24 -152 206 -338 216 -220 252 -293 244 -489 -5 -118
-28 -186 -86 -252 -91 -104 -323 -131 -459 -53 -99 57 -150 165 -155 329 l-3
100 111 3 111 3 6 -88 c3 -49 11 -101 18 -115 23 -51 126 -69 177 -31 33 24
46 72 39 145 -8 91 -45 146 -203 303 -207 206 -248 285 -248 475 1 197 71 307
227 355 55 18 169 18 232 1z m-1437 -113 l-3 -108 -192 -3 -193 -2 0 -220 0
-220 150 0 150 0 0 -110 0 -110 -150 0 -150 0 0 -310 0 -310 -120 0 -120 0 0
750 0 750 315 0 316 0 -3 -107z m810 0 l-3 -108 -202 -3 -203 -2 0 -205 0
-205 160 0 160 0 0 -110 0 -110 -160 0 -160 0 0 -215 0 -215 203 -2 202 -3 3
-107 3 -108 -326 0 -325 0 0 750 0 750 325 0 326 0 -3 -107z m1712 -3 l0 -110
-120 0 -120 0 0 -640 0 -640 -125 0 -125 0 0 640 0 640 -120 0 -120 0 0 110 0
110 365 0 365 0 0 -110z m1160 -2615 l0 -855 -2155 0 -2155 0 0 855 0 855
2155 0 2155 0 0 -855z"/>
<path d="M3176 7318 c-20 -29 -20 -34 4 -58 19 -19 33 -20 500 -20 l480 0 0
50 0 50 -484 0 -485 0 -15 -22z"/>
<path d="M3875 6099 c-800 -79 -1415 -752 -1415 -1549 0 -230 60 -491 157
-684 179 -357 504 -645 879 -780 169 -61 413 -101 579 -94 l80 3 3 116 3 115
-85 -4 c-150 -8 -341 23 -508 83 -343 123 -649 419 -780 755 -185 473 -98 976
234 1358 143 164 345 303 546 376 168 60 381 94 520 82 l72 -6 0 114 c0 109
-1 114 -22 120 -30 8 -162 5 -263 -5z"/>
<path d="M3915 5404 c-11 -2 -45 -9 -75 -15 -71 -14 -208 -71 -274 -113 -168
-108 -307 -290 -364 -477 -141 -460 133 -949 603 -1081 64 -17 107 -22 215
-22 l135 -1 0 855 0 855 -110 1 c-60 1 -119 0 -130 -2z"/>
<path d="M6080 7622 c-21 -22 -30 -42 -35 -83 -3 -30 -5 -247 -3 -484 3 -461
3 -458 54 -486 30 -15 99 -15 129 1 49 26 50 36 53 490 4 491 2 522 -38 562
-24 23 -37 28 -80 28 -43 0 -56 -5 -80 -28z"/>
<path d="M7800 7622 c-40 -40 -42 -71 -38 -562 3 -454 4 -464 53 -490 30 -16
99 -16 129 -1 51 28 51 24 54 496 2 242 0 460 -3 484 -10 67 -49 101 -115 101
-43 0 -56 -5 -80 -28z"/>
</g>
</svg>
