<?xml version="1.0" encoding="UTF-8" standalone="no"?>
<!DOCTYPE svg PUBLIC "-//W3C//DTD SVG 1.1//EN" "http://www.w3.org/Graphics/SVG/1.1/DTD/svg11.dtd">
<svg width="100%" height="100%" viewBox="0 0 176 24" version="1.1" xmlns="http://www.w3.org/2000/svg" xmlns:xlink="http://www.w3.org/1999/xlink" xml:space="preserve" xmlns:serif="http://www.serif.com/" style="fill-rule:evenodd;clip-rule:evenodd;stroke-linejoin:round;stroke-miterlimit:2;">
    <g transform="matrix(1,0,0,1,-28.7336,-95.0469)">
        <g transform="matrix(0.37232,0,0,0.37232,19.3414,10.8185)">
            <path d="M250.438,226.678L273.728,226.678L273.728,290.217L246.481,290.217L246.368,290.104L246.368,281.398L264.796,281.398L264.909,281.285L264.909,275.519L264.344,275.519L262.083,274.615L261.404,274.615L259.143,273.711L258.465,273.711L256.204,272.806L255.525,272.806L253.264,271.902L252.586,271.902L250.325,270.997L249.646,270.997L247.385,270.093L246.707,270.093L246.368,269.753C246.217,269.151 246.292,268.774 246.594,268.623L246.594,266.362L246.82,266.136L246.82,264.101L247.046,263.874L247.046,261.613L247.272,261.387L247.272,259.126L247.498,258.9L247.498,256.865L247.724,256.639L247.724,254.378L247.951,254.151L247.951,252.116L248.177,251.89L248.177,249.629L248.403,249.403L248.403,247.368L248.629,247.142L248.629,244.881L248.855,244.655L248.855,242.62L249.081,242.393L249.307,237.645L249.533,237.419L249.533,235.384L249.759,235.158L249.759,232.897L249.986,232.67L249.986,230.635L250.212,230.409L250.212,228.148L250.438,227.922L250.438,226.678ZM330.257,226.678L338.962,226.678L339.075,226.791L339.075,290.217L315.898,290.217C315.748,290.217 315.71,289.878 315.785,289.199L315.559,288.973L315.559,286.712L315.333,286.486L315.107,281.738L314.881,281.512L314.881,279.25L314.655,279.024L314.429,274.502L314.203,274.276L314.203,272.015L313.976,271.789L313.976,269.527L313.75,269.301L313.75,267.04L313.524,266.814L313.524,264.779L313.298,264.553L313.298,262.292L313.072,262.066L313.072,259.804L312.846,259.578L312.62,254.83L312.394,254.604L312.394,252.569L312.168,252.343L311.941,247.594C311.678,247.455 311.602,247.192 311.715,246.803L312.281,246.803L313.863,246.124L314.542,246.124L316.803,245.22L317.481,245.22L319.064,244.542L319.742,244.542L322.004,243.637L322.682,243.637L324.943,242.733L325.621,242.733L327.204,242.054L327.883,242.054L329.918,241.376L330.257,241.037L330.257,226.678ZM422.06,246.803L430.765,246.803L430.879,246.916L430.879,290.217L422.173,290.217L422.06,290.104L422.06,246.803ZM103.236,226.904L127.657,226.904L127.657,290.217L103.236,290.217L103.236,272.467L105.384,271.223L105.837,271.223L108.324,269.867L108.776,269.867L112.055,268.284L112.055,281.398L118.612,281.398L118.612,259.126L118.273,259.013L111.489,262.179L110.924,262.179L110.924,252.569L111.263,252.229L113.298,251.551L118.047,249.29L118.612,249.29L118.612,235.497L112.394,235.497L112.055,235.836L112.055,245.22L111.037,245.446L108.776,246.577L108.324,246.577L106.063,247.707L105.61,247.707L103.349,248.838L103.236,226.904ZM280.285,226.678L303.462,226.678C303.575,226.641 303.613,226.829 303.575,227.244L303.801,227.47L303.801,229.505L304.027,229.731L304.027,231.992L304.253,232.218L304.253,234.479L304.48,234.705L304.48,236.741L304.706,236.967L304.706,239.228L304.932,239.454L304.932,241.489L305.158,241.715L305.158,243.976L305.384,244.202L305.384,246.237L305.61,246.464L305.61,248.725L305.836,248.951L305.836,250.986L306.062,251.212L306.062,253.473L306.289,253.699L306.289,255.96L306.515,256.187L306.515,258.222L306.741,258.448L306.741,260.709L306.967,260.935L306.967,262.97L307.193,263.196L307.193,265.457L307.419,265.683L307.645,269.753L306.628,270.319L305.949,270.319L298.488,272.806L297.809,272.806L296.226,273.484L295.548,273.484L293.287,274.389L292.608,274.389L290.347,275.293L289.669,275.293L289.33,275.633L289.33,281.285L289.443,281.398L307.645,281.398L307.645,290.217L280.285,290.217L280.285,226.678ZM472.484,226.678L495.774,226.678L495.774,290.217L468.527,290.217L468.414,290.104L468.414,281.398L486.842,281.398L486.955,281.285L486.955,275.519L468.414,269.867L468.64,269.301L468.64,267.04L468.866,266.814L468.866,264.779L469.092,264.553L469.092,262.292L469.318,262.066L469.318,260.03L469.544,259.804L469.544,257.543L469.771,257.317L469.771,255.056L469.997,254.83L469.997,252.795L470.223,252.569L470.223,250.307L470.449,250.081L470.449,248.046L470.675,247.82L470.675,245.559L470.901,245.333L470.901,243.298L471.127,243.072L471.127,240.811L471.353,240.584L471.353,238.323L471.579,238.097L471.579,236.062L471.806,235.836L471.806,233.575L472.032,233.349L472.032,231.314L472.258,231.088L472.258,228.826L472.484,228.6L472.484,226.678ZM217.425,226.678L240.715,226.678L240.715,290.217L213.468,290.217L213.355,290.104L213.355,281.398L231.783,281.398L231.896,281.285L231.896,275.519L231.331,275.519L229.07,274.615L228.392,274.615L225.452,273.484L224.774,273.484L222.512,272.58L221.834,272.58L219.573,271.675L218.895,271.675L216.633,270.771L215.955,270.771L213.355,269.867L213.355,268.849L213.581,268.623L213.581,266.588L213.807,266.362L213.807,264.101L214.033,263.874L214.033,261.839L214.259,261.613L214.259,259.352L214.485,259.126L214.485,257.091L214.711,256.865L214.938,252.116L215.164,251.89L215.164,249.855L215.39,249.629L215.39,247.368L215.616,247.142L215.842,242.62L216.068,242.393L216.068,240.358L216.294,240.132L216.294,237.871L216.52,237.645L216.52,235.384L216.747,235.158L216.747,233.123L216.973,232.897L216.973,230.635L217.199,230.409L217.199,228.374L217.425,228.148L217.425,226.678ZM437.662,226.678L446.481,226.678L446.481,231.54C446.443,231.653 446.631,231.691 447.046,231.653L447.272,231.427L447.95,231.427L450.89,230.296L451.568,230.296L454.508,229.166L455.186,229.166L457.447,228.261L458.126,228.261L461.065,227.131L461.743,227.131L462.987,226.678L462.987,290.104L462.874,290.217L454.169,290.217L454.169,238.323C454.206,238.21 454.018,238.173 453.603,238.21L451.342,239.115L450.664,239.115L447.724,240.245L447.046,240.245L446.481,240.471L446.481,290.104L446.367,290.217L437.662,290.217L437.662,226.678ZM357.843,226.678L383.62,226.678L383.62,235.497L375.367,235.497L375.254,235.61L375.254,290.104L375.141,290.217L366.209,290.217L366.209,235.61L366.096,235.497L357.843,235.497L357.843,226.678ZM181.246,226.678L204.423,226.678L204.536,226.791L204.536,228.6L204.762,228.826L204.762,231.088L204.988,231.314L205.215,235.836L205.441,236.062L205.441,238.097L205.667,238.323L205.667,240.584L205.893,240.811L206.119,245.333L206.345,245.559L206.345,247.82L206.571,248.046L206.797,252.569L207.024,252.795L207.024,254.83L207.25,255.056L207.25,257.317L207.476,257.543L207.476,259.578L207.702,259.804L207.702,262.066L207.928,262.292L207.928,264.553L208.154,264.779L208.154,266.814L208.38,267.04L208.38,269.301L208.606,269.867L190.065,275.519L190.065,281.285L190.178,281.398L208.606,281.398L208.606,290.217L181.246,290.217L181.246,226.678ZM149.59,226.678L158.522,226.678L158.635,226.791L158.635,281.285L158.748,281.398L166.323,281.398L166.323,267.945C166.285,267.831 166.473,267.794 166.888,267.831L167.566,267.379L168.697,267.153L169.375,266.701L170.506,266.475L171.184,266.023L172.993,265.57L173.671,265.118L175.367,264.666L175.367,290.217L149.59,290.217L149.59,226.678ZM388.143,226.678L396.961,226.678L396.961,241.037L397.3,241.376L399.335,242.054L400.014,242.054L402.275,242.959L402.953,242.959L405.214,243.863L405.893,243.863L408.154,244.768L408.832,244.768L411.093,245.672L411.772,245.672L414.033,246.577L414.711,246.577L415.277,246.803L415.277,290.104L415.163,290.217L406.91,290.217L406.91,253.021C406.948,252.908 406.759,252.87 406.345,252.908L401.596,251.325L399.335,250.873L397.753,250.194L396.961,250.194L396.961,289.878L396.848,289.991L389.838,289.991L389.612,290.217L388.143,290.217L388.143,226.678ZM55.413,226.226L61.744,226.226L61.97,226.452L63.553,226.452L63.779,226.678L64.91,226.678L65.136,226.904L66.04,226.904L66.266,227.131L67.849,227.357L70.562,228.261L75.763,230.748L78.476,232.557C80.436,233.989 82.207,235.61 83.79,237.419L87.182,241.941L89.895,247.368L91.026,250.76L91.026,251.438L91.478,252.569L91.478,253.473L91.704,253.699L91.93,257.091L92.157,257.317L92.157,261.613L91.93,261.839L91.704,265.231L91.478,265.457L91.478,266.362L90.8,268.171L90.8,268.849L88.313,274.728L85.147,279.476L80.964,283.886L76.215,287.277L72.597,289.086L70.562,289.765L70.675,289.426L72.937,285.129L72.937,284.677L74.293,281.512L74.293,280.833L74.746,279.703L74.746,278.798L74.972,278.572L74.972,277.441L75.198,277.215L75.198,271.562L74.972,271.336L74.972,270.206L74.746,269.98L74.519,268.171L73.841,266.136L73.389,265.457L73.389,265.005L71.58,261.387L69.997,259.126L69.997,258.787C69.545,258.598 69.394,258.787 69.545,259.352L69.093,260.03L67.058,266.362L66.605,267.04L65.927,269.527L65.475,270.206L64.796,272.693L64.344,273.371L63.44,276.537L62.988,277.215L62.309,279.703L61.857,280.381L59.822,286.712L59.37,287.391L58.917,289.199L58.578,289.539L57.108,285.129L56.656,284.451L55.978,281.964L55.526,281.285L54.847,278.798L54.395,278.12L53.717,275.633L53.265,274.954L52.586,272.467L52.134,271.789L51.456,269.301L51.003,268.623L50.325,266.136L49.873,265.457L49.194,262.97L48.742,262.292L48.064,259.804L47.499,258.787L45.35,261.839L43.994,264.553L43.994,265.005L43.542,265.683L42.863,267.718L42.863,268.397L42.411,269.527L42.411,270.432L42.185,270.658L42.185,272.241L41.959,272.467L41.959,276.763L42.185,276.989L42.185,278.346L42.411,278.572L42.411,279.25L42.637,279.476L42.637,280.155L42.863,280.381L42.863,281.059L43.542,283.094L46.481,289.652L46.142,289.539L43.881,288.86L39.584,286.373L36.645,284.112L33.366,280.833L31.557,278.572L29.07,274.502L27.487,270.884L27.035,269.075L26.583,268.397L25.678,265.683L25.452,262.744L25.226,262.518L25.226,256.865L25.452,256.639L25.452,254.83C25.791,254.641 25.867,254.189 25.678,253.473L26.131,252.569L26.357,250.986L27.713,246.916L28.166,246.237L28.166,245.785L29.748,242.62C31.69,239.36 34.064,236.534 36.871,234.14L40.489,231.427L46.142,228.487L49.534,227.357L51.116,227.131L51.343,226.904L52.247,226.904L53.604,226.452L55.187,226.452L55.413,226.226ZM330.031,250.194L325.508,251.777L324.83,251.777L321.891,252.908L321.212,252.908L321.212,254.943L321.438,255.169L321.438,257.43L321.664,257.656L321.664,259.691L321.891,259.917L321.891,262.179L322.117,262.405L322.117,264.666L322.343,264.892L322.343,266.927L322.569,267.153L322.569,269.414L322.795,269.64L322.795,271.902L323.021,272.128L323.021,274.163L323.247,274.389L323.247,276.65L323.473,276.876L323.473,279.137L323.699,279.363L323.699,281.398L330.257,281.398L330.257,250.421L330.031,250.194ZM225.339,235.497L225.339,236.854L225.113,237.08L225.113,239.341L224.887,239.567L224.887,241.828L224.661,242.054L224.661,244.315L224.434,244.542L224.434,246.803L224.208,247.029L224.208,249.064L223.982,249.29L223.982,251.551L223.756,251.777L223.756,254.038L223.53,254.265L223.53,256.526L223.304,256.752L223.304,258.787L223.078,259.013L223.078,261.274L222.852,261.5L222.852,263.988L224.434,264.214L228.052,265.57L228.731,265.57L231.444,266.475C231.595,266.776 231.746,266.776 231.896,266.475L231.896,235.497L225.339,235.497ZM480.398,235.497L480.398,237.532L480.172,237.758L480.172,240.019L479.946,240.245L479.946,242.28L479.72,242.506L479.72,244.768L479.494,244.994L479.494,247.255L479.267,247.481L479.267,249.742L479.041,249.968L479.041,252.229L478.815,252.456L478.815,254.491L478.589,254.717L478.589,256.978L478.363,257.204L478.363,259.465L478.137,259.691L478.137,261.952L477.911,262.179L477.911,263.988L478.815,263.988L482.433,265.344L483.111,265.344L486.955,266.701L486.955,235.497L480.398,235.497ZM258.352,235.497L258.352,236.854L258.126,237.08L258.126,239.341L257.9,239.567L257.9,241.602L257.674,241.828L257.674,244.089L257.447,244.315L257.447,246.577L257.221,246.803L257.221,249.064L256.995,249.29L256.995,251.551L256.769,251.777L256.769,253.812L256.543,254.038L256.543,256.3L256.317,256.526L256.317,258.787L256.091,259.013L256.091,261.274L255.865,261.5L255.865,263.535L255.639,263.761L256.091,263.988L257.447,264.44L258.126,264.44L261.065,265.57L261.744,265.57L264.909,266.701L264.909,235.497L258.352,235.497ZM190.065,235.497L190.065,266.475L191.648,266.249L195.265,264.892L195.944,264.892L199.109,263.761L199.109,262.179L198.883,261.952L198.883,259.691L198.657,259.465L198.657,257.43L198.431,257.204L198.431,255.169L198.205,254.943L198.205,252.682L197.979,252.456L197.979,250.421L197.753,250.194L197.753,247.933L197.527,247.707L197.527,245.672L197.301,245.446L197.301,243.185L197.074,242.959L197.074,240.924L196.848,240.698L196.848,238.663L196.622,238.436L196.622,236.175L196.396,235.949L196.396,235.497L190.065,235.497ZM289.33,235.497L289.33,266.475L290.008,266.475L291.591,265.796L292.269,265.796L295.887,264.44L296.566,264.44L298.374,263.761C298.525,263.309 298.45,263.008 298.148,262.857L298.148,260.822L297.922,260.596L297.922,258.335L297.696,258.108L297.696,256.073L297.47,255.847L297.47,253.586L297.244,253.36L297.244,251.325L297.018,251.099L297.018,249.064L296.792,248.838L296.792,246.577L296.566,246.35L296.566,244.315L296.339,244.089L296.113,239.567L295.887,239.341L295.887,237.08L295.661,236.854C295.812,235.949 295.812,235.497 295.661,235.497L289.33,235.497ZM48.968,236.627L48.968,239.793C49.27,239.944 49.345,240.321 49.194,240.924L50.551,243.637C51.456,244.692 52.586,245.597 53.943,246.35L55.3,247.029L56.656,247.481L57.561,247.481L57.787,247.707L60.048,247.707L60.274,247.481L60.952,247.481L62.309,247.029L65.701,244.768L67.058,243.185L67.962,241.376L68.188,240.698L68.188,239.115C68.49,238.964 68.49,238.813 68.188,238.663L68.188,236.627L62.535,236.627L62.535,237.758L61.857,239.115C61.405,239.718 60.802,240.17 60.048,240.471L57.561,240.471L56.656,240.019C55.601,239.416 54.998,238.436 54.847,237.08L54.621,236.627L48.968,236.627ZM422.06,226.678L430.879,226.678L430.879,237.984L422.06,237.984L422.06,226.678Z" style="fill:white;fill-rule:nonzero;"/>
        </g>
    </g>
</svg>
