<?xml version="1.0" encoding="UTF-8" standalone="no"?>
<!DOCTYPE svg PUBLIC "-//W3C//DTD SVG 1.1//EN" "http://www.w3.org/Graphics/SVG/1.1/DTD/svg11.dtd">
<svg width="100%" height="100%" viewBox="0 0 1700 265" version="1.1" xmlns="http://www.w3.org/2000/svg" xmlns:xlink="http://www.w3.org/1999/xlink" xml:space="preserve" xmlns:serif="http://www.serif.com/" style="fill-rule:evenodd;clip-rule:evenodd;stroke-linejoin:round;stroke-miterlimit:2;">
    <g transform="matrix(1,0,0,1,-241.894,-342.619)">
        <g transform="matrix(4.16667,0,0,4.16667,0,0)">
            <g transform="matrix(0.24,0,0,0.24,3.0545,16.3385)">
                <path d="M463.575,274.542C480.354,274.542 493.925,288.425 493.925,305.508L493.925,508.337C493.925,525.425 480.354,539.304 463.575,539.304L259.513,539.304C242.733,539.304 229.167,525.425 229.167,508.337L229.167,305.508C229.167,288.425 242.733,274.542 259.513,274.542L463.575,274.542ZM1443.54,390.367L1443.54,435.925L1480.96,435.925C1477.34,449.254 1464.59,456.917 1447.01,456.917C1422.23,456.917 1407.74,434.308 1407.74,410.258C1407.74,383.887 1422.78,359.546 1450.08,359.546C1462.33,359.546 1473.18,365.342 1479.03,376.354L1544.28,352.387C1528.8,317.171 1481.58,299.421 1447.22,299.421C1385.04,299.421 1337.55,339.829 1337.55,406.988C1337.55,473.054 1386.35,511.825 1446.69,511.825C1477.38,511.825 1509.65,498.992 1530.64,475.242C1553.99,449.033 1553.99,423.946 1554.52,390.367L1443.54,390.367ZM347.663,509.883L404.617,453.087L404.617,383.621L361.462,340.487L281.988,340.487L281.988,303.963L367.783,303.963C374.246,303.963 380.133,306.575 384.296,310.892L434.242,360.692C438.5,364.85 441.146,370.65 441.146,377.071L441.146,460.292C441.146,466.608 438.575,472.329 434.763,476.467L401.308,509.883L347.663,509.883ZM1578.03,508.504L1716.18,508.504L1716.18,455.296L1647.4,455.296L1647.4,432.058L1708.83,432.058L1708.83,378.554L1647.4,378.554L1647.4,355.858L1714.08,355.858L1714.08,302.654L1578.03,302.654L1578.03,508.504ZM949.004,508.504L1087.15,508.504L1087.15,455.296L1018.38,455.296L1018.38,432.058L1079.8,432.058L1079.8,378.554L1018.38,378.554L1018.38,355.858L1085.05,355.858L1085.05,302.654L949.004,302.654L949.004,508.504ZM1745.75,508.504L1813.02,508.504L1813.02,439.396L1814.33,439.396L1851.88,508.504L1928.71,508.504C1928.71,508.504 1880.08,428.638 1876.4,425.633L1876.4,423.996C1903.16,414.717 1912.64,399.938 1912.64,368.817C1912.64,321.404 1877.18,302.654 1832.58,302.654L1745.75,302.654L1745.75,508.504ZM1115.67,508.504L1182.04,508.504L1182.04,400.392L1245.27,508.504L1314,508.504L1314,302.654L1249.21,302.654L1249.21,416.771L1184.67,302.654L1115.67,302.654L1115.67,508.504ZM862.104,302.654C862.104,302.654 831.296,408.929 827.85,420.8L792.017,302.654L720.021,302.654L796.629,508.504L857.492,508.504L934.1,302.654L862.104,302.654ZM611.275,508.479L539.279,508.479L615.883,302.654L676.75,302.654L753.354,508.479L681.358,508.479L670.25,471.858L621.987,471.858L611.275,508.479ZM347.663,420.5C363.325,420.5 376.025,433.196 376.025,448.858C376.025,464.517 363.325,477.212 347.663,477.212C332.004,477.212 319.308,464.517 319.308,448.858C319.308,433.196 332.004,420.5 347.663,420.5ZM338.938,396.625L281.946,453.612L281.946,399.696L314.308,367.333C318.454,363.133 324.562,360.25 330.938,360.25L353.65,360.25L389.963,396.567L338.938,396.625ZM657.271,429.062L645.529,390.358C644.321,394.933 639.817,410.583 634.454,429.062L657.271,429.062ZM1813.02,358.896L1818.53,358.896C1830.86,358.896 1844.65,360.808 1844.65,376.642C1844.65,391.929 1829.81,393.842 1818,393.842L1813.02,393.842L1813.02,358.896Z" style="fill:white;"/>
            </g>
        </g>
    </g>
</svg>
