<?xml version="1.0" encoding="UTF-8" standalone="no"?>
<!DOCTYPE svg PUBLIC "-//W3C//DTD SVG 1.1//EN" "http://www.w3.org/Graphics/SVG/1.1/DTD/svg11.dtd">
<svg width="100%" height="100%" viewBox="0 0 165 35" version="1.1" xmlns="http://www.w3.org/2000/svg" xmlns:xlink="http://www.w3.org/1999/xlink" xml:space="preserve" xmlns:serif="http://www.serif.com/" style="fill-rule:evenodd;clip-rule:evenodd;stroke-linejoin:round;stroke-miterlimit:2;">
    <g transform="matrix(1,0,0,1,-525,-44)">
        <g transform="matrix(0.335558,0,0,0.335558,533.359,44.5171)">
            <path d="M0,98.616C22.086,98.616 37.752,82.437 37.752,49.308C37.752,16.179 22.086,0 0,0L-24.911,0L-24.911,98.616L0,98.616ZM-3.082,78.842L-3.082,19.775L0,19.775C8.475,19.775 15.152,29.277 15.152,49.308C15.152,69.339 8.475,78.842 0,78.842L-3.082,78.842ZM46.738,98.616L92.966,98.616L92.966,78.842L68.568,78.842L68.568,57.911L89.113,57.911L89.113,38.137L68.568,38.137L68.568,19.775L92.966,19.775L92.966,0L46.738,0L46.738,98.616ZM103.236,0L103.236,98.616L125.066,98.616L125.066,63.432L129.175,63.432C149.463,63.432 161.534,50.463 161.534,31.717C161.534,12.969 149.463,0 129.175,0L103.236,0ZM125.066,44.429L125.066,19.004L129.175,19.004C136.108,19.004 139.448,22.472 139.448,31.717C139.448,40.961 136.108,44.429 129.175,44.429L125.066,44.429ZM196.944,80.383C189.754,80.383 188.47,69.339 188.47,49.308C188.47,29.277 189.754,18.234 196.944,18.234C204.136,18.234 205.42,29.277 205.42,49.308C205.42,69.339 204.136,80.383 196.944,80.383M196.944,100.157C219.031,100.157 227.506,82.437 227.506,49.308C227.506,16.179 219.031,-1.541 196.944,-1.541C174.858,-1.541 166.384,16.179 166.384,49.308C166.384,82.437 174.858,100.157 196.944,100.157M233.797,78.842L233.797,98.616L289.012,98.616L289.012,78.842L259.35,78.842L281.438,50.336C287.344,42.631 290.426,34.412 290.426,25.939C290.426,9.246 278.74,-1.541 261.662,-1.541C247.795,-1.541 231.485,5.906 232.771,33.515L254.215,33.515C252.416,24.654 254.6,18.234 261.662,18.234C264.744,18.234 269.109,20.289 269.109,25.939C269.109,30.176 267.313,35.054 263.844,39.551L233.797,78.842ZM325.838,80.383C318.646,80.383 317.363,69.339 317.363,49.308C317.363,29.277 318.646,18.234 325.838,18.234C333.027,18.234 334.313,29.277 334.313,49.308C334.313,69.339 333.027,80.383 325.838,80.383M325.838,100.157C347.924,100.157 356.398,82.437 356.398,49.308C356.398,16.179 347.924,-1.541 325.838,-1.541C303.752,-1.541 295.277,16.179 295.277,49.308C295.277,82.437 303.752,100.157 325.838,100.157M375.658,0C375.658,6.678 366.414,8.988 358.965,8.988L358.965,28.121C364.744,28.121 371.42,27.094 375.658,24.525L375.658,98.616L397.488,98.616L397.488,0L375.658,0ZM428.434,54.959C429.588,52.39 432.414,50.849 435.623,50.849C439.99,50.849 443.971,54.701 443.971,65.487C443.971,76.273 439.477,80.383 436.395,80.383C429.332,80.383 427.535,75.246 429.332,67.67L407.887,67.67C406.604,92.709 422.525,100.157 436.395,100.157C452.188,100.157 465.285,87.316 465.285,65.487C465.285,43.658 456.426,33 440.631,33C436.137,33 431.129,34.412 428.434,36.853L428.434,19.775L459.635,19.775L459.635,0L408.529,0L408.529,54.959L428.434,54.959Z" style="fill:white;fill-rule:nonzero;"/>
        </g>
    </g>
</svg>
