<?xml version="1.0" encoding="UTF-8" standalone="no"?>
<!DOCTYPE svg PUBLIC "-//W3C//DTD SVG 1.1//EN" "http://www.w3.org/Graphics/SVG/1.1/DTD/svg11.dtd">
<svg width="100%" height="100%" viewBox="0 0 167 50" version="1.1" xmlns="http://www.w3.org/2000/svg" xmlns:xlink="http://www.w3.org/1999/xlink" xml:space="preserve" xmlns:serif="http://www.serif.com/" style="fill-rule:evenodd;clip-rule:evenodd;stroke-linejoin:round;stroke-miterlimit:2;">
    <g transform="matrix(1,0,0,1,-29.3824,-207.301)">
        <g>
            <g transform="matrix(1.24067,0,0,1.24067,29.3821,207.301)">
                <path d="M15.382,0.643C14.323,0.955 13.283,1.285 12.274,1.641C3.835,5.128 -1.185,13.989 0.241,22.987C0.336,23.48 0.547,24.475 0.688,25.094L8.007,23.11C7.483,21.058 7.372,19.076 7.503,17.113C7.52,13.471 8.944,9.031 10.197,7.037C11.6,4.42 13.483,2.198 15.761,0.555C15.635,0.582 15.509,0.615 15.382,0.643" style="fill:white;fill-rule:nonzero;"/>
            </g>
            <g transform="matrix(1.24067,0,0,1.24067,29.3821,207.301)">
                <path d="M21.713,0.2C21.604,0.23 21.498,0.252 21.388,0.284C12.975,2.801 8.421,12.599 9.895,22.579L11.055,22.265C13.209,13.745 19.577,6.676 28.655,4.216C29.513,3.982 30.376,3.799 31.233,3.663C28.441,1.73 25.163,0.517 21.713,0.2" style="fill:white;fill-rule:nonzero;"/>
            </g>
            <g transform="matrix(1.24067,0,0,1.24067,29.3821,207.301)">
                <path d="M33.805,5.892C32.731,5.984 31.087,6.178 29.252,6.572C27.37,6.978 22.922,8.79 19.244,12.034C15.631,15.057 13.538,21.188 13.384,22.235C16.215,19.912 21.381,17.297 26.132,16.767C30.929,16.23 34.623,17.052 39.674,19.534C39.646,17.947 39.427,16.341 38.993,14.744C38.048,11.264 36.212,8.26 33.805,5.892" style="fill:white;fill-rule:nonzero;"/>
            </g>
            <g transform="matrix(1.24067,0,0,1.24067,29.3821,207.301)">
                <path d="M25.034,38.93C33.008,36.767 38.54,30.043 39.552,22.358C34.567,19.653 31.924,18.562 25.781,19.233C21.5,19.699 16.57,22.179 16.032,22.913C19.784,24.003 22.985,27.385 24.115,31.551C24.839,34.219 24.611,36.908 23.654,39.246C24.115,39.155 24.575,39.054 25.034,38.93" style="fill:white;fill-rule:nonzero;"/>
            </g>
            <g transform="matrix(1.24067,0,0,1.24067,29.3821,207.301)">
                <path d="M46.211,26.621L46.211,9.999L42.61,9.999L42.61,7.6L46.211,7.6L46.211,6.457C46.211,4.356 46.955,2.701 48.443,1.492C49.735,0.498 51.946,0 55.071,0L55.071,3.152C53.815,3.152 52.898,3.416 52.322,3.947C51.755,4.551 51.471,5.388 51.471,6.457L51.471,7.6L55.071,7.6L55.071,9.999L51.471,9.999L51.471,26.621L46.211,26.621Z" style="fill:white;fill-rule:nonzero;"/>
            </g>
            <g transform="matrix(1.24067,0,0,1.24067,29.3821,207.301)">
                <path d="M62.787,17.083C62.852,18.728 62.948,19.976 63.073,20.827C63.199,21.678 63.536,22.447 64.085,23.135C64.634,23.823 65.48,24.167 66.624,24.167C68.225,24.167 69.234,23.56 69.652,22.347C70.071,21.133 70.28,19.416 70.28,17.194C70.28,15.009 70.068,13.283 69.645,12.013C69.221,10.744 68.215,10.11 66.624,10.11C64.987,10.157 63.938,10.791 63.478,12.013C63.018,13.236 62.787,14.926 62.787,17.083M66.568,7.489C68.783,7.489 70.552,7.847 71.878,8.563C73.203,9.279 74.155,10.338 74.731,11.742C75.308,13.146 75.597,14.926 75.597,17.083C75.597,20.457 74.88,22.928 73.448,24.494C72.016,26.061 69.68,26.844 66.443,26.844C63.373,26.816 61.11,26.03 59.655,24.487C58.198,22.944 57.47,20.495 57.47,17.138C57.526,10.705 60.559,7.489 66.568,7.489" style="fill:white;fill-rule:nonzero;"/>
            </g>
            <g transform="matrix(1.24067,0,0,1.24067,29.3821,207.301)">
                <path d="M93.946,25.826C93.946,25.901 93.408,26.049 92.334,26.272C91.259,26.495 89.89,26.63 88.224,26.676C85.899,26.676 84.057,26.352 82.699,25.701C81.341,25.05 80.362,23.988 79.762,22.514C79.162,21.041 78.862,19.021 78.862,16.455C78.936,14.41 79.264,12.737 79.845,11.435C80.427,10.133 81.353,9.16 82.623,8.514C83.893,7.868 85.588,7.544 87.709,7.544C89.057,7.572 90.269,7.689 91.343,7.893C92.417,8.097 93.187,8.265 93.653,8.395L94.225,11.142C93.881,10.966 93.248,10.747 92.327,10.487C91.406,10.226 90.248,10.083 88.852,10.055C87.019,10.055 85.801,10.659 85.197,11.868C84.591,13.076 84.29,14.605 84.29,16.455C84.29,18.687 84.538,20.502 85.036,21.901C85.534,23.3 86.559,24.055 88.113,24.167C89.351,24.167 90.415,24.06 91.308,23.846C92.201,23.632 92.92,23.397 93.465,23.142C94.009,22.887 94.281,22.731 94.281,22.674L93.946,25.826Z" style="fill:white;fill-rule:nonzero;"/>
            </g>
            <g transform="matrix(1.24067,0,0,1.24067,29.3821,207.301)">
                <path d="M103.086,21.252C103.086,22.043 103.376,22.698 103.957,23.218C104.539,23.739 105.257,23.999 106.113,23.999C107.528,23.963 108.536,23.627 109.142,22.995C109.745,22.363 110.109,21.838 110.229,21.42L110.229,7.6L114.234,7.6L114.234,26.621L110.229,26.621L110.229,24.85C109.866,25.157 109.08,25.538 107.872,25.993C106.661,26.449 104.992,26.677 102.862,26.677C101.28,26.621 100.026,26.143 99.101,25.241C98.176,24.339 97.713,23.065 97.713,21.42L97.713,7.6L103.086,7.6L103.086,21.252Z" style="fill:white;fill-rule:nonzero;"/>
            </g>
            <g transform="matrix(1.24067,0,0,1.24067,29.3821,207.301)">
                <path d="M123.262,12.23C123.262,12.964 123.915,13.515 125.222,13.882C126.529,14.25 127.871,14.593 129.248,14.914C130.625,15.235 131.818,15.774 132.827,16.532C133.836,17.29 134.364,18.463 134.411,20.053C134.411,22.377 133.785,24.046 132.535,25.059C131.283,26.073 129.466,26.667 127.085,26.843C126.787,26.881 126.331,26.9 125.717,26.9C124.099,26.9 122.703,26.772 121.532,26.516C120.36,26.26 119.545,26.049 119.09,25.881L118.35,22.563C118.769,22.851 119.537,23.214 120.653,23.65C121.769,24.088 123.113,24.315 124.685,24.334C126.36,24.334 127.497,24.081 128.097,23.574C128.697,23.067 129.01,22.275 129.039,21.197C129.039,19.951 128.618,19.128 127.776,18.728C126.934,18.328 125.571,17.942 123.687,17.571C121.804,17.199 120.385,16.664 119.432,15.967C118.478,15.27 118.001,14.042 118.001,12.285C118.141,9.227 120.56,7.591 125.257,7.377C125.415,7.377 125.634,7.368 125.913,7.349C126.192,7.33 126.392,7.321 126.513,7.321C128.215,7.321 129.587,7.442 130.629,7.683C131.671,7.925 132.378,8.125 132.75,8.283L133.657,11.365C133.294,11.133 132.583,10.847 131.522,10.508C130.462,10.168 129.025,9.999 127.211,9.999C125.983,9.999 125.025,10.14 124.336,10.424C123.648,10.707 123.29,11.309 123.262,12.23" style="fill:white;fill-rule:nonzero;"/>
            </g>
            <g transform="matrix(1.24067,0,0,1.24067,29.3821,207.301)">
                <path d="M45.991,31.989L48.744,31.989L51.19,36.083L51.216,36.083L51.216,31.989L53.524,31.989L53.524,39.369L50.883,39.369L48.317,35.236L48.3,35.236L48.3,39.369L45.991,39.369L45.991,31.989Z" style="fill:white;fill-rule:nonzero;"/>
            </g>
            <g transform="matrix(1.24067,0,0,1.24067,29.3821,207.301)">
                <path d="M67.025,37.768C68.009,37.768 68.632,37.179 68.632,35.679C68.632,34.179 68.009,33.591 67.025,33.591C66.042,33.591 65.418,34.179 65.418,35.679C65.418,37.179 66.042,37.768 67.025,37.768M67.025,31.731C68.487,31.731 71.198,31.855 71.198,35.679C71.198,39.505 68.487,39.627 67.025,39.627C65.563,39.627 62.852,39.505 62.852,35.679C62.852,31.855 65.563,31.731 67.025,31.731" style="fill:white;fill-rule:nonzero;"/>
            </g>
            <g transform="matrix(1.24067,0,0,1.24067,29.3821,207.301)">
                <path d="M82.937,35.235L84.648,35.235C85.118,35.235 85.314,35.007 85.314,34.541C85.314,33.984 85.015,33.849 84.614,33.849L82.937,33.849L82.937,35.235ZM80.526,31.989L85.607,31.989C86.298,31.989 86.717,32.06 87.05,32.257C87.503,32.526 87.88,33.24 87.88,34.046C87.88,34.738 87.64,35.483 86.94,35.731L86.94,35.751C87.299,35.877 87.59,36.248 87.631,36.888L87.734,38.501C87.761,38.833 87.88,39.143 88.034,39.37L85.401,39.37C85.314,39.153 85.314,38.833 85.272,37.974C85.246,37.427 85.093,37.096 84.648,37.096L82.937,37.096L82.937,39.37L80.526,39.37L80.526,31.989Z" style="fill:white;fill-rule:nonzero;"/>
            </g>
            <g transform="matrix(1.24067,0,0,1.24067,29.3821,207.301)">
                <path d="M99.637,37.509L101.021,37.509C102.125,37.509 102.57,36.848 102.57,35.679C102.57,34.512 102.125,33.849 101.021,33.849L99.637,33.849L99.637,37.509ZM97.225,31.989L101.92,31.989C103.989,31.989 105.082,32.959 105.082,35.679C105.082,38.273 103.997,39.369 101.971,39.369L97.225,39.369L97.225,31.989Z" style="fill:white;fill-rule:nonzero;"/>
            </g>
            <g transform="matrix(1.24067,0,0,1.24067,29.3821,207.301)">
                <path d="M114.437,39.369L116.848,39.369L116.848,31.989L114.437,31.989L114.437,39.369Z" style="fill:white;fill-rule:nonzero;"/>
            </g>
            <g transform="matrix(1.24067,0,0,1.24067,29.3821,207.301)">
                <path d="M134.386,36.496C134.232,37.468 133.958,38.254 133.361,38.791C132.77,39.329 131.846,39.628 130.376,39.628C128.914,39.628 126.204,39.505 126.204,35.679C126.204,31.855 128.914,31.731 130.376,31.731C131.828,31.731 134.07,31.957 134.386,34.883L131.667,34.883C131.598,34.356 131.306,33.591 130.376,33.591C129.393,33.591 128.77,34.179 128.77,35.679C128.77,37.179 129.376,37.768 130.256,37.768C131.016,37.768 131.471,37.385 131.667,36.496L134.386,36.496Z" style="fill:white;fill-rule:nonzero;"/>
            </g>
        </g>
    </g>
</svg>
