<?xml version="1.0" encoding="UTF-8" standalone="no"?>
<!DOCTYPE svg PUBLIC "-//W3C//DTD SVG 1.1//EN" "http://www.w3.org/Graphics/SVG/1.1/DTD/svg11.dtd">
<svg width="100%" height="100%" viewBox="0 0 167 111" version="1.1" xmlns="http://www.w3.org/2000/svg" xmlns:xlink="http://www.w3.org/1999/xlink" xml:space="preserve" xmlns:serif="http://www.serif.com/" style="fill-rule:evenodd;clip-rule:evenodd;stroke-linejoin:round;stroke-miterlimit:2;">
    <g transform="matrix(1,0,0,1,-529,-115)">
        <g transform="matrix(1.48881,0,0,1.48881,16.9771,-563.896)">
            <g transform="matrix(0.511979,0,0,0.511979,347.156,456)">
                <path d="M0,23.774L-6.331,23.774L-6.331,0L17.444,0L17.444,6.331L0,6.331L0,23.774Z" style="fill:white;fill-rule:nonzero;"/>
            </g>
            <g transform="matrix(0.511979,0,0,0.511979,456.085,517.828)">
                <path d="M0,23.775L-23.773,23.775L-23.773,17.444L-6.331,17.444L-6.331,0L0,0L0,23.775Z" style="fill:white;fill-rule:nonzero;"/>
            </g>
            <g transform="matrix(0.511979,0,0,0.511979,456.085,456)">
                <path d="M0,23.774L-6.331,23.774L-6.331,6.331L-23.773,6.331L-23.773,0L0,0L0,23.774Z" style="fill:white;fill-rule:nonzero;"/>
            </g>
            <g transform="matrix(0.511979,0,0,0.511979,356.087,517.829)">
                <path d="M0,23.772L-23.775,23.772L-23.775,0L-17.444,0L-17.444,17.441L0,17.441L0,23.772Z" style="fill:white;fill-rule:nonzero;"/>
            </g>
            <g transform="matrix(0.511979,0,0,0.511979,415.278,516.401)">
                <path d="M0,-15.66L0,-8.335C0.686,-8.264 1.229,-8.227 1.623,-8.227C3.478,-8.227 4.83,-8.536 5.684,-9.156C6.535,-9.775 6.965,-10.783 6.965,-12.18C6.965,-14.555 5.051,-15.739 1.23,-15.739C0.801,-15.739 0.393,-15.711 0,-15.66M0,-4.727L0,3.687L-4.062,3.687L-4.062,-19.176C-1.354,-19.286 0.229,-19.347 0.686,-19.347C4.3,-19.347 6.938,-18.793 8.609,-17.683C10.281,-16.574 11.117,-14.844 11.117,-12.488C11.117,-7.244 8.027,-4.618 1.842,-4.618C1.383,-4.618 0.77,-4.66 0,-4.727" style="fill:white;fill-rule:nonzero;"/>
            </g>
            <g transform="matrix(0.511979,0,0,0.511979,424.259,516.361)">
                <path d="M0,-15.581L0,-9.226C0.75,-9.167 1.323,-9.133 1.716,-9.133C3.412,-9.133 4.654,-9.374 5.442,-9.852C6.225,-10.33 6.621,-11.26 6.621,-12.644C6.621,-13.771 6.198,-14.555 5.354,-15.007C4.509,-15.454 3.186,-15.677 1.375,-15.677C0.937,-15.677 0.477,-15.644 0,-15.581M8.683,3.766L2.572,-5.681C1.959,-5.693 1.103,-5.727 0,-5.792L0,3.766L-4.218,3.766L-4.218,-19.112C-3.987,-19.112 -3.109,-19.153 -1.581,-19.226C-0.048,-19.305 1.186,-19.347 2.124,-19.347C7.933,-19.347 10.834,-17.096 10.834,-12.6C10.834,-11.245 10.437,-10.014 9.635,-8.897C8.831,-7.786 7.82,-6.998 6.602,-6.539L13.365,3.766L8.683,3.766Z" style="fill:white;fill-rule:nonzero;"/>
            </g>
            <g transform="matrix(0.511979,0,0,0.511979,433.42,512.523)">
                <path d="M0,-0.372C0,2.307 0.451,4.375 1.357,5.846C2.263,7.315 3.578,8.044 5.31,8.044C7.338,8.044 8.885,7.331 9.953,5.888C11.021,4.452 11.554,2.368 11.554,-0.372C11.554,-5.732 9.575,-8.414 5.621,-8.414C3.809,-8.414 2.421,-7.688 1.453,-6.236C0.484,-4.782 0,-2.831 0,-0.372M-4.22,-0.372C-4.22,-3.629 -3.326,-6.383 -1.536,-8.64C0.244,-10.892 2.628,-12.022 5.621,-12.022C8.909,-12.022 11.426,-10.999 13.166,-8.96C14.9,-6.921 15.771,-4.057 15.771,-0.372C15.771,3.316 14.861,6.238 13.045,8.405C11.228,10.569 8.651,11.65 5.31,11.65C2.238,11.65 -0.121,10.576 -1.758,8.432C-3.4,6.291 -4.22,3.355 -4.22,-0.372" style="fill:white;fill-rule:nonzero;"/>
            </g>
            <g transform="matrix(0.511979,0,0,0.511979,358.506,478.281)">
                <path d="M0,43.993L0,0L7.809,0L7.809,43.993L0,43.993Z" style="fill:white;fill-rule:nonzero;"/>
            </g>
            <g transform="matrix(0.511979,0,0,0.511979,423.237,498.974)">
                <path d="M0,-36.847L-3.273,-30.572C-4.191,-31.394 -5.615,-32.207 -7.536,-33.02C-9.46,-33.83 -11.111,-34.232 -12.49,-34.232C-16.815,-34.232 -20.228,-32.768 -22.729,-29.833C-25.233,-26.902 -26.486,-22.973 -26.486,-18.049C-26.486,-13.364 -25.259,-9.622 -22.805,-6.818C-20.354,-4.014 -17.017,-2.61 -12.792,-2.61C-10.008,-2.61 -7.718,-3.376 -5.915,-4.892L-5.915,-13.543L-12.01,-13.543L-12.01,-20.209L1.894,-20.209L1.894,-0.511C0.032,1.009 -2.368,2.196 -5.302,3.046C-8.233,3.896 -11.15,4.325 -14.052,4.325C-20.36,4.325 -25.358,2.257 -29.052,-1.878C-32.748,-6.011 -34.592,-11.475 -34.592,-18.259C-34.592,-25.048 -32.581,-30.562 -28.556,-34.808C-24.532,-39.051 -19.118,-41.172 -12.312,-41.172C-7.485,-41.172 -3.382,-39.728 0,-36.847" style="fill:white;fill-rule:nonzero;"/>
            </g>
            <g transform="matrix(0.511979,0,0,0.511979,431.116,497.254)">
                <path d="M0,-30.123L0,-19.824L14.532,-19.824L14.532,-13.187L0,-13.187L0,-0.006L19.939,-0.006L19.939,6.935L-7.808,6.935L-7.808,-37.058L20.271,-37.058L20.271,-30.123L0,-30.123Z" style="fill:white;fill-rule:nonzero;"/>
            </g>
            <g transform="matrix(0.511979,0,0,0.511979,393.733,485.903)">
                <path d="M0,14.208L5.284,-2.035L10.57,14.208L0,14.208ZM6.998,-15.492L3.573,-15.492L-12.349,24.997L-20.483,-14.887L-24.598,-14.887L-33.906,14.749L-43.425,-14.887L-47.57,-14.887L-56.43,29.133L-48.89,29.133L-44.146,5.407L-35.288,29.7L-32.493,29.7L-23.635,5.407L-19.077,29.105L-5.287,29.105L-2.222,20.184L12.854,20.184L16.066,29.105L24.684,29.105L6.998,-15.492Z" style="fill:white;fill-rule:nonzero;"/>
            </g>
        </g>
    </g>
</svg>
