<?xml version="1.0" encoding="UTF-8" standalone="no"?>
<!DOCTYPE svg PUBLIC "-//W3C//DTD SVG 1.1//EN" "http://www.w3.org/Graphics/SVG/1.1/DTD/svg11.dtd">
<svg width="100%" height="100%" viewBox="0 0 1692 375" version="1.1" xmlns="http://www.w3.org/2000/svg" xmlns:xlink="http://www.w3.org/1999/xlink" xml:space="preserve" xmlns:serif="http://www.serif.com/" style="fill-rule:evenodd;clip-rule:evenodd;stroke-linejoin:round;stroke-miterlimit:2;">
    <g transform="matrix(1,0,0,1,-297.622,-366.736)">
        <path d="M919.013,647.036C893.099,647.036 872.099,668.047 872.099,693.964C872.099,719.87 893.099,740.881 919.013,740.881C944.928,740.881 965.936,719.87 965.936,693.964C965.936,668.047 944.928,647.036 919.013,647.036ZM805.974,647.036C780.059,647.036 759.057,668.047 759.057,693.964C759.057,719.87 780.059,740.881 805.974,740.881C831.889,740.881 852.897,719.87 852.897,693.964C852.897,668.047 831.889,647.036 805.974,647.036ZM604.973,385.951L604.973,601.944C604.973,645.417 588.273,674.394 562.748,697.013C537.198,719.631 499.424,731.257 462.834,733.009C446.087,733.844 417.358,733.683 388.281,726.334C367.201,720.921 347.056,710.986 329.661,697.418C320.938,690.604 305.726,676.658 297.622,664.114L324.707,647.759C336.917,640.205 350.502,639.159 361.277,647.742C364.32,650.162 367.349,652.543 369.866,654.663C398.965,679.195 446.263,675.368 461.394,674.288C479.648,672.914 503.154,668.013 518.579,656.22C534.089,644.483 543.915,627.355 543.915,601.783L543.915,432.072C543.996,406.522 565.185,385.873 590.79,385.928L604.973,385.951ZM1450.87,627.945C1450.63,682.71 1406.2,726.512 1351.39,726.378L1122.21,726.378L1122.21,440.394C1122.21,411.529 1146.6,388.643 1175.44,388.643L1335.7,388.643C1396.98,388.643 1434.9,437.245 1434.9,488.128C1434.9,511.553 1425.6,534.662 1409.7,549.893C1433.35,566.386 1450.87,596.281 1450.87,627.945ZM1557.9,402.806C1549.17,394.234 1538.53,388.643 1525.03,388.643L1460.51,388.643L1591.01,519.147C1617.91,547.579 1625.02,563.488 1625.18,592.943L1625.18,726.378L1686.24,726.378L1686.24,592.943C1686.4,563.488 1693.51,547.579 1720.41,519.147L1850.91,388.643L1786.39,388.643C1772.89,388.643 1762.25,394.234 1753.52,402.806L1675.13,481.269C1664.32,492.078 1655.71,504.917 1655.71,504.917C1655.71,504.917 1647.11,492.078 1636.56,481.531L1557.9,402.806ZM1349.83,668.252C1372.38,668.252 1390.67,649.962 1390.67,627.405C1390.67,604.859 1372.38,586.579 1349.83,586.579L1183.5,586.579L1183.5,668.252L1349.83,668.252ZM998.951,567.11C973.037,567.11 952.029,588.115 952.029,614.026C952.029,639.938 973.037,660.949 998.951,660.949C1024.86,660.949 1045.87,639.938 1045.87,614.026C1045.87,588.115 1024.86,567.11 998.951,567.11ZM726.05,567.11C700.136,567.11 679.128,588.115 679.128,614.026C679.128,639.938 700.136,660.949 726.05,660.949C751.965,660.949 772.973,639.938 772.973,614.026C772.973,588.115 751.965,567.11 726.05,567.11ZM998.951,454.073C973.037,454.073 952.029,475.072 952.029,500.984C952.029,526.902 973.037,547.907 998.951,547.907C1024.87,547.907 1045.87,526.902 1045.87,500.984C1045.87,475.072 1024.87,454.073 998.951,454.073ZM726.05,454.073C700.136,454.073 679.128,475.072 679.128,500.984C679.128,526.902 700.136,547.907 726.05,547.907C751.965,547.907 772.973,526.902 772.973,500.984C772.973,475.072 751.965,454.073 726.05,454.073ZM1333.97,528.448C1356.53,528.448 1374.81,510.163 1374.81,487.605C1374.81,465.054 1356.53,446.775 1333.97,446.775L1183.5,446.775L1183.5,528.448L1333.97,528.448ZM1937.43,366.736C1908.8,366.736 1885.57,389.966 1885.57,418.565C1885.57,447.225 1908.8,470.394 1937.43,470.394C1966.01,470.394 1989.15,447.225 1989.15,418.565C1989.15,389.966 1966.01,366.736 1937.43,366.736ZM919.013,374.141C893.099,374.141 872.099,395.146 872.099,421.063C872.099,446.975 893.099,467.986 919.013,467.986C944.928,467.986 965.936,446.975 965.936,421.063C965.936,395.146 944.928,374.141 919.013,374.141ZM805.974,374.141C780.059,374.141 759.057,395.146 759.057,421.063C759.057,446.975 780.059,467.974 805.974,467.974C831.889,467.974 852.897,446.975 852.897,421.063C852.897,395.146 831.889,374.141 805.974,374.141ZM1937.43,461.905C1913.49,461.905 1894,442.574 1894,418.565C1894,394.656 1913.49,375.169 1937.43,375.169C1961.43,375.169 1980.79,394.656 1980.79,418.565C1980.79,442.574 1961.43,461.905 1937.43,461.905ZM1962.74,448.499L1948.02,424.284C1956.5,422.204 1960.8,416.312 1960.8,406.744C1960.8,394.573 1954.22,388.66 1940.67,388.66L1916.17,388.66L1916.17,448.499L1924.84,448.499L1924.84,425.007L1938.56,425.007L1951.87,448.499L1962.74,448.499ZM1924.84,416.674L1924.84,397.121L1941.43,397.121C1946.76,397.121 1951.7,398.289 1951.7,406.744C1951.7,415.5 1946.5,416.674 1941.43,416.674L1924.84,416.674Z" style="fill:white;fill-rule:nonzero;"/>
    </g>
</svg>
