<?xml version="1.0" encoding="UTF-8" standalone="no"?>
<!DOCTYPE svg PUBLIC "-//W3C//DTD SVG 1.1//EN" "http://www.w3.org/Graphics/SVG/1.1/DTD/svg11.dtd">
<svg width="100%" height="100%" viewBox="0 0 149 37" version="1.1" xmlns="http://www.w3.org/2000/svg" xmlns:xlink="http://www.w3.org/1999/xlink" xml:space="preserve" xmlns:serif="http://www.serif.com/" style="fill-rule:evenodd;clip-rule:evenodd;stroke-linejoin:round;stroke-miterlimit:2;">
    <g transform="matrix(1,0,0,1,-268.166,-286.463)">
        <g transform="matrix(0.744172,0,0,0.744172,-29.5031,-49.9029)">
            <g transform="matrix(1,0,0,1,400,451.68)">
                <path d="M68.065,27.927C67.08,27.903 65.811,27.903 64.191,27.903C60.537,27.903 57.978,28.884 57.978,31.825C57.978,34.078 59.762,35.525 62.407,35.525C66.403,35.525 68.065,33.208 68.065,29.422L68.065,27.927ZM68.818,32.573C68.818,34.298 68.918,35.463 68.982,35.859L68.242,35.859C68.164,35.451 68.059,34.293 68.062,32.713C67.279,34.971 65.453,36.237 62.378,36.237C58.593,36.237 57.183,33.962 57.183,31.853C57.183,28.475 60.007,27.231 64.22,27.231C66.176,27.231 67.134,27.231 68.061,27.257L68.061,25.452C68.061,23.336 67.142,21.268 63.485,21.268C60.108,21.268 59.013,22.924 58.725,25.06L57.967,25.06C58.164,22.893 59.431,20.582 63.523,20.582C67.337,20.582 68.818,22.612 68.818,25.292L68.818,32.573ZM75.61,13.308L76.367,13.308L76.367,35.86L75.61,35.86L75.61,13.308ZM83.185,20.96L83.943,20.96L83.943,35.86L83.185,35.86L83.185,20.96ZM83.185,13.308L83.943,13.308L83.943,16.11L83.185,16.11L83.185,13.308ZM88.513,20.96L91.368,20.96L91.368,16.03L92.125,16.03L92.125,20.96L95.911,20.96L95.911,21.649L92.125,21.649L92.125,32.513C92.125,34.277 92.485,35.436 94.345,35.436C94.767,35.436 95.297,35.398 95.648,35.267L95.648,35.932C95.235,36.101 94.718,36.14 94.278,36.14C92.206,36.14 91.368,35.21 91.368,32.474L91.368,21.649L88.513,21.649L88.513,20.96ZM100.326,24.89C100.326,23.044 100.301,21.499 100.296,20.96L101.039,20.96C101.074,21.56 101.112,23.207 101.084,24.649C101.656,23.067 103.164,20.582 106.883,20.582C109.698,20.582 112.189,22.266 112.189,26.552L112.189,35.859L111.415,35.859L111.415,26.664C111.415,23.558 109.9,21.307 106.778,21.307C103.001,21.307 101.084,24.417 101.084,27.858L101.084,35.859L100.326,35.859L100.326,24.89ZM118.99,20.96L119.747,20.96L119.747,35.86L118.989,35.86L118.99,20.96ZM124.321,12.943L119.681,17.825L118.823,17.825L123.344,12.943L124.321,12.943ZM136.005,35.86L136.005,21.65L133.232,21.65L133.232,20.96L136.005,20.96L136.005,18.404C136.005,15.724 136.525,13.029 139.665,13.029C140.263,13.029 140.831,13.118 141.115,13.254L141.115,13.994C140.757,13.849 140.159,13.748 139.629,13.748C137.689,13.748 136.763,14.941 136.763,18.205L136.763,20.96L140.186,20.96L140.186,21.65L136.763,21.65L136.763,35.86L136.005,35.86ZM143.81,28.445C143.81,32.395 146.084,35.579 149.858,35.579C153.799,35.579 155.978,32.432 155.978,28.412C155.978,24.49 153.737,21.24 149.888,21.24C145.982,21.24 143.809,24.519 143.809,28.445M156.773,28.382C156.773,32.979 154.201,36.271 149.826,36.271C145.672,36.271 143.014,33.051 143.014,28.461C143.014,23.591 145.952,20.549 149.948,20.549C153.971,20.549 156.773,23.716 156.773,28.382M160.15,20.96L163.005,20.96L163.005,16.03L163.763,16.03L163.763,20.96L167.549,20.96L167.549,21.649L163.763,21.649L163.763,32.513C163.763,34.277 164.123,35.436 165.982,35.436C166.404,35.436 166.934,35.398 167.285,35.267L167.285,35.932C166.873,36.101 166.355,36.14 165.915,36.14C163.843,36.14 163.005,35.21 163.005,32.474L163.005,21.649L160.15,21.649L160.15,20.96ZM173.08,28.925C174.526,27.645 179.902,22.965 182.193,20.96L183.266,20.96L176.284,27.033C177.523,28.489 182.884,34.486 184.124,35.859L183.104,35.859C182.064,34.67 176.87,28.827 175.715,27.487L173.079,29.741L173.079,35.859L172.321,35.859L172.321,13.31L173.079,13.31L173.08,28.925ZM187.4,20.96C191.423,30.552 192.996,34.155 193.354,35.177L193.384,35.177C193.856,33.944 195.514,29.915 199.179,20.961L200,20.961L193.752,36.164C191.692,41.124 190.734,42.711 187.99,42.711C187.464,42.711 186.918,42.654 186.63,42.585L186.697,41.818C187.007,41.888 187.525,41.944 188.012,41.944C190.045,41.944 190.998,40.954 192.955,36.153L186.558,20.961L187.4,20.96ZM50.785,28.262L53.917,20.961L53.113,20.961C52.385,22.606 51.666,24.254 50.957,25.907C50.935,26.701 50.877,27.487 50.785,28.262M37.284,33.06C37.436,33.306 37.578,33.561 37.71,33.826C37.843,34.091 37.994,34.342 38.165,34.579C38.335,34.816 38.535,35.033 38.761,35.232C38.988,35.43 39.281,35.587 39.641,35.701L39.641,35.871L31.947,35.871L31.947,35.701C32.325,35.549 32.519,35.298 32.528,34.948C32.538,34.598 32.438,34.243 32.231,33.883L29.164,28.687L28.171,29.737L28.171,33.258C28.171,33.505 28.189,33.755 28.227,34.011C28.265,34.266 28.327,34.508 28.411,34.735C28.497,34.962 28.605,35.161 28.738,35.332C28.871,35.502 29.022,35.625 29.193,35.701L29.193,35.871L22.123,35.871L22.123,35.701C22.293,35.625 22.444,35.501 22.577,35.331C22.709,35.161 22.813,34.961 22.889,34.735C22.964,34.508 23.021,34.266 23.059,34.011C23.097,33.755 23.117,33.505 23.117,33.258L23.117,18.465C23.117,17.803 22.997,17.259 22.761,16.833C22.525,16.407 22.16,16.005 21.668,15.627L21.668,15.456C21.971,15.361 22.392,15.238 22.932,15.086C23.471,14.936 24.049,14.77 24.664,14.59C25.797,14.259 26.928,13.923 28.057,13.582L28.171,13.582L28.171,29.142L33.679,23.349C33.98,23.014 34.101,22.554 34.005,22.114C33.954,21.89 33.852,21.681 33.707,21.504C33.547,21.308 33.343,21.152 33.111,21.049L33.111,20.879L37.398,20.879L37.398,21.049C36.788,21.284 36.215,21.605 35.694,22C35.221,22.37 34.72,22.83 34.19,23.378L32.543,25.138L37.284,33.06Z" style="fill:white;fill-rule:nonzero;"/>
            </g>
            <g transform="matrix(1,0,0,1,400,451.68)">
                <path d="M24.839,49.24C11.56,49.24 0.759,38.44 0.759,25.16C0.759,11.882 11.561,1.08 24.839,1.08C38.117,1.08 48.919,11.882 48.919,25.16C48.919,26.727 48.764,28.259 48.476,29.743L45.324,23.803C44.964,23.027 44.883,22.427 45.082,22C45.281,21.574 45.645,21.258 46.175,21.05L46.175,20.879L38.477,20.879L38.477,21.049C39.007,21.333 39.409,21.721 39.684,22.213C39.958,22.706 40.237,23.226 40.521,23.775L46.52,35.632C42.617,43.68 34.366,49.241 24.839,49.241M24.839,0.321C11.142,0.32 0,11.462 0,25.16C0,38.858 11.142,50 24.839,50C38.536,50 49.679,38.857 49.679,25.16C49.679,11.463 38.535,0.32 24.838,0.32" style="fill:white;fill-rule:nonzero;"/>
            </g>
        </g>
    </g>
</svg>
