<?xml version="1.0" encoding="UTF-8" standalone="no"?>
<!DOCTYPE svg PUBLIC "-//W3C//DTD SVG 1.1//EN" "http://www.w3.org/Graphics/SVG/1.1/DTD/svg11.dtd">
<svg width="100%" height="100%" viewBox="0 0 4330 2426" version="1.1" xmlns="http://www.w3.org/2000/svg" xmlns:xlink="http://www.w3.org/1999/xlink" xml:space="preserve" xmlns:serif="http://www.serif.com/" style="fill-rule:evenodd;clip-rule:evenodd;stroke-linejoin:round;stroke-miterlimit:2;">
    <g transform="matrix(1,0,0,1,-788.02,-1740.04)">
        <g transform="matrix(4.16667,0,0,4.16667,0,0)">
            <g transform="matrix(0.24,0,0,0.24,-9.95205,-1.38472)">
                <path d="M3584.05,3257.21L3584.05,3285.29C3584.05,3465.83 3582.45,3646.39 3584.49,3826.92C3586.61,4013.58 3474.63,4130.07 3302.45,4160.09C3200.68,4177.83 3098.74,4176.46 3000.42,4140.68C2880.61,4097.08 2809.29,4012.06 2791.81,3884.41C2789.28,3865.96 2788.06,3847.19 2788.03,3828.57C2787.76,3646.64 2787.87,3464.7 2787.88,3282.77L2787.88,3258.68L2983.82,3258.68L2983.82,3284.68C2983.82,3465.22 2983.96,3645.77 2983.78,3826.32C2983.66,3943.56 3059.29,3997.04 3154.43,4005C3203.65,4009.12 3252.85,4006.74 3298.76,3984.02C3355.96,3955.71 3385.67,3908.12 3387.36,3846.2C3390.18,3742.12 3389.09,3637.93 3389.36,3533.79C3389.58,3449.07 3389.79,3364.35 3389.06,3279.64C3388.91,3263.11 3392.42,3256.44 3410.6,3256.8C3467.41,3257.92 3524.24,3257.21 3584.05,3257.21ZM3914.07,3258.22C3921.88,3257.87 3929.31,3257.25 3936.74,3257.25C4073.5,3257.19 4210.26,3256.37 4347,3257.57C4414.65,3258.16 4481.14,3267.26 4541.08,3302.72C4621.91,3350.54 4649.4,3424.05 4639.82,3513.51C4630.75,3598.11 4586.85,3656.22 4503.43,3681.39C4500.61,3682.24 4498.34,3684.9 4493.51,3688.38C4500.15,3691.94 4504.4,3695.03 4509.15,3696.65C4609.87,3731.01 4656.42,3788.87 4663.04,3888.2C4669.79,3989.48 4622.79,4073.83 4535.88,4117.8C4483.31,4144.4 4426.99,4155.85 4368.97,4156.31C4222.5,4157.48 4076.02,4156.72 3929.55,4156.67C3924.82,4156.66 3920.09,4155.89 3914.07,4155.36L3914.07,3258.22ZM1025.52,4155.73L830.367,4155.73L830.367,3257.2C867.763,3257.2 904.4,3257.2 941.038,3257.21C961.863,3257.21 982.759,3258.28 1003.5,3256.91C1020.47,3255.78 1024.41,3262.18 1024.31,3278.3C1023.65,3383.12 1023.98,3487.95 1023.98,3592.77L1023.98,3622.87C1034.88,3614.81 1041.65,3610.86 1047.13,3605.57C1161.88,3494.6 1276.6,3383.58 1390.95,3272.18C1401.56,3261.85 1411.92,3256.59 1427.28,3256.83C1487.66,3257.75 1548.07,3257.2 1608.47,3257.2L1638.62,3257.2C1630.85,3271.05 1627.76,3281.47 1620.95,3287.99C1483.61,3419.51 1345.85,3550.59 1208.12,3681.7C1203.62,3685.97 1198.53,3689.62 1192.17,3694.82C1214.42,3716.75 1234.51,3736.67 1254.74,3756.45C1380.78,3879.72 1506.93,4002.87 1632.69,4126.42C1639.26,4132.88 1642.59,4142.63 1650.1,4155.38C1636.28,4156.03 1628.97,4156.66 1621.65,4156.67C1555.7,4156.75 1489.74,4157.32 1423.81,4156.14C1412.83,4155.94 1399.24,4150.77 1391.49,4143.16C1276.1,4029.84 1161.5,3915.72 1046.66,3801.83C1041.5,3796.7 1035.89,3792.03 1025.52,3782.66L1025.52,4155.73ZM1900.65,3258.64L2095.42,3258.64L2095.42,3992.45L2547.2,3992.45L2547.2,4155.45L1900.65,4155.45L1900.65,3258.64ZM4108.02,3778.77L4108.02,4001.01C4190.78,4001.01 4271.86,4001.95 4352.9,4000.34C4373.06,3999.94 4393.7,3993.05 4412.98,3986.01C4442.12,3975.36 4460.34,3953.65 4468.14,3923.07C4485.96,3853.26 4451.12,3792.52 4379.86,3786.46C4290.44,3778.86 4200.19,3780.93 4108.02,3778.77ZM4107.66,3625.76C4131.66,3625.76 4154.39,3626.12 4177.11,3625.69C4240.15,3624.5 4303.42,3625.78 4366.17,3620.75C4421.19,3616.33 4452.31,3579.31 4455.23,3525.62C4458.25,3470.06 4432.89,3435.07 4377.84,3420.98C4361.9,3416.9 4345.14,3414.23 4328.73,3414.05C4261.41,3413.28 4194.07,3413.7 4126.74,3413.77C4120.67,3413.78 4114.61,3414.46 4107.66,3414.88L4107.66,3625.76ZM4085.33,2085.75L3905.1,2085.75C3896.81,2061.77 3891.08,2038.1 3880.73,2016.65C3856.65,1966.71 3814.38,1937.31 3762.41,1922.01C3691.53,1901.13 3620.2,1901.55 3549.83,1924.38C3474.38,1948.86 3425.12,2001.47 3400.69,2075.49C3369.84,2168.96 3369.36,2263.85 3403.01,2356.7C3438.97,2455.91 3523.23,2515.13 3628.62,2517.28C3665.07,2518.01 3702.62,2518.16 3737.92,2510.52C3835.14,2489.46 3883.74,2436.67 3906.44,2334.84L4089.63,2334.84C4085.61,2359.6 4083.78,2384.22 4077.46,2407.64C4044.35,2530.23 3963.68,2609.9 3845.37,2648.66C3710.94,2692.7 3574.57,2690.64 3441.49,2641.97C3315.27,2595.81 3236.11,2502.91 3201.28,2374.42C3167.67,2250.47 3170.59,2126.42 3216.98,2005.47C3253.69,1909.78 3318.6,1837.62 3412.73,1797.25C3567.72,1730.77 3726.15,1728.05 3881.97,1793.06C3984.18,1835.7 4052.58,1912.57 4077.41,2023.29C4081.87,2043.18 4082.66,2063.9 4085.33,2085.75ZM5158.95,2661.06C5091.37,2661.06 5029.73,2661.45 4968.11,2660.35C4962.97,2660.25 4955.62,2650.89 4953.35,2644.41C4932.73,2585.52 4912.57,2526.46 4893.37,2467.09C4888.95,2453.42 4882.55,2449.15 4868.32,2449.24C4766.27,2449.87 4664.21,2449.86 4562.16,2449.26C4547.86,2449.17 4541.42,2453.76 4537.06,2467.34C4518.45,2525.38 4498.31,2582.93 4479.67,2640.96C4474.99,2655.54 4468.67,2661.9 4452.2,2661.51C4401.54,2660.32 4350.85,2661.12 4300.16,2661.04C4294.06,2661.03 4287.96,2660.37 4278.43,2659.8C4280.7,2647.87 4281.36,2636.99 4284.88,2627.13C4385.2,2345.68 4485.91,2064.37 4586.03,1782.85C4591.02,1768.85 4597.31,1763.75 4612.38,1763.93C4682.5,1764.75 4752.63,1764.71 4822.73,1763.96C4837.65,1763.8 4844.49,1768.47 4849.56,1782.74C4948.75,2061.8 5048.53,2340.64 5147.98,2619.6C5152.29,2631.68 5154.62,2644.46 5158.95,2661.06ZM2705.41,1766.54L2898.67,1766.54L2898.67,2660.58L2705.41,2660.58L2705.41,1766.54ZM1024.13,2497.52L1478.14,2497.52L1478.14,2660.09L829.487,2660.09L829.487,1766.7L1024.13,1766.7L1024.13,2497.52ZM2415.18,1765.99L2415.18,1919.14L1946.24,1919.14L1946.24,2133.33L2350.87,2133.33L2350.87,2288.6L1946.5,2288.6L1946.5,2505.95L2423.2,2505.95L2423.2,2659.26L1751.24,2659.26L1751.24,2638.72C1751.23,2355.45 1751.4,2072.18 1750.84,1788.91C1750.81,1769.92 1755.92,1764.41 1775.22,1764.47C1981.42,1765.16 2187.63,1764.89 2393.83,1764.95C2400.61,1764.95 2407.39,1765.6 2415.18,1765.99ZM4836.81,2290.21C4796.97,2171.87 4758.33,2057.1 4719.69,1942.33L4710.7,1942.53C4672.26,2057.89 4633.82,2173.25 4594.84,2290.21L4836.81,2290.21Z" style="fill:white;fill-rule:nonzero;"/>
            </g>
        </g>
    </g>
</svg>
