<?xml version="1.0" encoding="UTF-8" standalone="no"?>
<!DOCTYPE svg PUBLIC "-//W3C//DTD SVG 1.1//EN" "http://www.w3.org/Graphics/SVG/1.1/DTD/svg11.dtd">
<svg width="100%" height="100%" viewBox="0 0 1652 637" version="1.1" xmlns="http://www.w3.org/2000/svg" xmlns:xlink="http://www.w3.org/1999/xlink" xml:space="preserve" xmlns:serif="http://www.serif.com/" style="fill-rule:evenodd;clip-rule:evenodd;stroke-linejoin:round;stroke-miterlimit:2;">
    <g transform="matrix(1,0,0,1,-269.862,-192.081)">
        <g transform="matrix(4.16667,0,0,4.16667,0,0)">
            <g transform="matrix(0.24,0,0,0.24,11.794,32.3185)">
                <path d="M408.333,377.3L470.404,377.3L470.404,641.962L631.196,641.962L631.196,694.092L408.333,694.092L408.333,377.3ZM1230.2,408.329L1283.55,408.329L1283.55,434.421L1284.33,434.421C1297.8,412.671 1319.92,402.808 1345.23,402.808C1409.26,402.808 1438.09,454.546 1438.09,512.583C1438.09,567.1 1408.07,618.042 1348.39,618.042C1325.23,618.042 1299.94,609.842 1287.12,593.388L1286.33,593.388L1286.33,684.383L1230.2,684.383L1230.2,408.329ZM1061.9,524.058C1063.47,559.588 1080.87,575.779 1111.49,575.779C1134.03,575.779 1152.19,561.967 1155.75,549.308L1205.16,549.308C1189.32,597.496 1155.75,618.033 1109.52,618.033C1045.71,618.033 1005.79,573.796 1005.79,510.629C1005.79,449.408 1048.08,402.808 1109.52,402.808C1179.08,402.808 1212.66,461.254 1208.7,524.058L1061.9,524.058ZM596.213,402.808C660.633,402.808 702.121,445.475 702.121,510.629C702.121,575.396 660.633,618 596.213,618C532.183,618 490.704,575.396 490.704,510.629C490.704,445.475 532.183,402.808 596.213,402.808ZM1686.96,402.808C1751.41,402.808 1792.88,445.467 1792.88,510.629C1792.88,575.396 1751.41,618 1686.96,618C1622.94,618 1581.45,575.396 1581.45,510.629C1581.45,445.467 1622.94,402.808 1686.96,402.808ZM948.104,612.496L890.383,612.496L854.017,475.462L853.25,475.462L818.462,612.496L760.342,612.496L695.533,408.329L754.821,408.329L792.371,546.954L793.171,546.954L827.154,408.329L881.687,408.329L916.492,546.517L917.267,546.517L954.812,408.329L1012.52,408.329L948.104,612.496ZM1581.45,402.942C1580.45,402.858 1579.48,402.804 1578.54,402.804C1551.3,402.804 1523.66,420.579 1513.37,446.246L1512.58,446.246L1512.58,408.329L1459.23,408.329L1459.23,612.483L1515.34,612.483L1515.34,520.5C1515.34,484.562 1529.54,454.925 1570.66,454.925C1574.05,454.925 1577.86,455.129 1581.45,455.483L1581.45,402.942ZM1381.95,511.012C1381.95,478.625 1368.94,445.083 1332.96,445.083C1296.2,445.083 1284.33,477.829 1284.33,511.012C1284.33,544.192 1296.99,575.783 1333.35,575.783C1370.12,575.783 1381.95,544.192 1381.95,511.012ZM596.213,575.779C634.546,575.779 646.017,543.004 646.017,510.629C646.017,477.829 634.546,445.083 596.213,445.083C558.283,445.083 546.813,477.829 546.813,510.629C546.813,543.004 558.283,575.779 596.213,575.779ZM1686.96,575.779C1725.28,575.779 1736.73,543.004 1736.73,510.629C1736.73,477.829 1725.28,445.075 1686.96,445.075C1649,445.083 1637.54,477.829 1637.54,510.629C1637.54,543.004 1649,575.779 1686.96,575.779ZM249.354,531.513C230.9,490.133 220.671,444.533 220.721,396.592C220.721,209.283 376.892,57.421 569.775,57.421C738.471,57.471 879.196,173.663 911.717,328.246L865.021,318.888L835.617,319.604L802.525,305.55L726.067,322.542L704.804,295.142L674.571,274.225L646.067,245.604L621.05,189.958L609.017,144.158L561.571,163.421L544.533,187.888L526.154,211.483L526.671,239.433L498.479,260.033L474.175,304.05L452.696,311.904L445.496,328.3L394.496,341.075L380.171,400.05L349.783,414.333L340.833,443.992L269.683,482.483L249.354,531.513ZM1152.6,488.517C1147.47,460.083 1135.2,445.083 1107.93,445.083C1073,445.083 1062.7,472.713 1061.9,488.517L1152.6,488.517ZM1834.78,392.275C1813.86,392.275 1796.89,409.233 1796.89,430.154C1796.89,451.058 1813.86,468.037 1834.78,468.037C1855.69,468.037 1872.66,451.058 1872.66,430.154C1872.66,409.233 1855.69,392.275 1834.78,392.275ZM1866.04,430.154C1866.04,447.404 1852.03,461.4 1834.78,461.4C1817.52,461.4 1803.52,447.404 1803.52,430.154C1803.52,412.888 1817.52,398.896 1834.78,398.896C1852.03,398.896 1866.04,412.888 1866.04,430.154ZM1820.45,408.329L1837.13,408.329C1847.42,408.329 1852.27,412.379 1852.27,420.671C1852.27,428.483 1847.32,431.733 1840.91,432.433L1853.25,451.5L1846.04,451.5L1834.3,432.933L1827.17,432.933L1827.17,451.5L1820.45,451.5L1820.45,408.329ZM1827.17,427.488L1834.18,427.488C1840.11,427.488 1845.55,427.196 1845.55,420.383C1845.55,414.65 1840.6,413.771 1836.06,413.771L1827.17,413.771L1827.17,427.488Z" style="fill:white;fill-rule:nonzero;"/>
            </g>
        </g>
    </g>
</svg>
