<?xml version="1.0" encoding="UTF-8" standalone="no"?>
<!DOCTYPE svg PUBLIC "-//W3C//DTD SVG 1.1//EN" "http://www.w3.org/Graphics/SVG/1.1/DTD/svg11.dtd">
<svg width="100%" height="100%" viewBox="0 0 149 29" version="1.1" xmlns="http://www.w3.org/2000/svg" xmlns:xlink="http://www.w3.org/1999/xlink" xml:space="preserve" xmlns:serif="http://www.serif.com/" style="fill-rule:evenodd;clip-rule:evenodd;stroke-linejoin:round;stroke-miterlimit:2;">
    <g transform="matrix(1,0,0,1,-268.166,-36.6489)">
        <g transform="matrix(0.420877,0,0,0.420877,99.8149,6.02203)">
            <g id="_185784720" transform="matrix(0.338616,0,0,0.338616,388.023,60.6472)">
                <path d="M140.886,229.92C157.049,228.593 172.089,223.325 185.05,215.066L140.886,138.794L140.886,229.92ZM80.376,214.957C93.316,223.238 108.334,228.541 124.483,229.906L124.483,138.794L80.376,214.957L80.376,214.957ZM140.886,84.39L124.483,84.39L124.483,35.816L124.484,35.816C74.569,40.039 35.371,81.863 35.371,132.865C35.371,161.418 47.659,187.1 67.236,204.921L124.473,106.056L124.483,106.06L124.483,106.049L140.886,106.049L140.886,106.063L140.897,106.056L198.211,205.058C217.876,187.227 230.227,161.492 230.227,132.865C230.227,81.782 190.903,39.909 140.886,35.798L140.886,84.39Z" style="fill:white;fill-rule:nonzero;"/>
            </g>
            <g>
                <g id="_183649232" transform="matrix(1.47778,0,0,1.47778,399.481,72.2828)">
                    <path d="M138.879,44.858L138.879,36.546L137.022,36.546L137.022,31.203L138.879,31.203L138.879,28.036C138.879,24.548 139.507,23.412 145.505,23.412C147.039,23.412 149.316,23.525 151.082,23.789L151.082,28.732C150.269,28.587 149.501,28.502 148.688,28.502C147.039,28.502 146.155,28.818 146.155,30.184L146.155,31.203L151.012,31.203L151.012,36.546L146.155,36.546L146.155,44.858L138.879,44.858Z" style="fill:white;"/>
                </g>
                <g id="_183334072" transform="matrix(1.47778,0,0,1.47778,399.481,72.2828)">
                    <path d="M152.475,44.858L152.475,27.281L159.658,27.281L159.658,32.278L159.702,32.278C160.283,29.021 160.889,27.019 163.816,27.019C164.816,27.019 165.419,27.107 165.979,27.194L165.979,35.049L163.699,35.049C161.235,35.049 160.355,37.65 160.355,39.976L160.355,44.858L152.475,44.858L152.475,44.858Z" style="fill:white;"/>
                </g>
                <g id="_131520752" transform="matrix(1.47778,0,0,1.47778,399.481,72.2828)">
                    <path d="M176.81,26.672C171.349,26.672 166.886,28.153 166.886,36.054C166.886,43.985 171.349,45.468 176.81,45.468C182.25,45.468 186.71,43.985 186.71,36.054C186.71,28.153 182.25,26.672 176.81,26.672ZM176.81,40.033C174.88,40.033 174.278,38.641 174.278,36.373C174.278,34.106 174.88,32.741 176.81,32.741C178.714,32.741 179.321,34.106 179.321,36.373C179.321,38.641 178.714,40.033 176.81,40.033Z" style="fill:white;"/>
                </g>
                <g id="_131369720" transform="matrix(1.47778,0,0,1.47778,399.481,72.2828)">
                    <path d="M190.034,40.719L190.034,32.678L187.616,32.678L187.616,30.607C189.733,28.457 191.803,26.133 193.502,23.813L197.752,23.813L197.752,27.328L202.933,27.328L202.933,32.678L197.612,32.678L197.612,38.435C197.612,39.887 199.147,40.033 200.103,40.033C200.866,40.033 202.079,39.887 202.75,39.685L201.754,44.466C200.379,44.787 198.102,45.161 195.312,45.161C191.478,45.161 190.034,44.117 190.034,40.719L190.034,40.719Z" style="fill:white;"/>
                </g>
                <g id="_131511984" transform="matrix(1.47778,0,0,1.47778,399.481,72.2828)">
                    <path d="M206.325,41.022L206.325,32.678L203.908,32.678L203.908,30.607C206.024,28.457 208.09,26.133 209.786,23.813L214.04,23.813L214.04,27.328L219.223,27.328L219.223,32.678L213.899,32.678L213.899,38.435C213.899,39.887 215.437,40.033 216.387,40.033C217.155,40.033 218.361,39.887 219.036,39.685L218.038,44.466C216.666,44.787 214.392,45.161 211.6,45.161C207.766,45.161 206.325,44.417 206.325,41.022L206.325,41.022Z" style="fill:white;"/>
                </g>
                <g id="_183147416" transform="matrix(1.47778,0,0,1.47778,399.481,72.2828)">
                    <path d="M229.748,26.672C224.287,26.672 219.822,28.153 219.822,36.054C219.822,43.985 224.287,45.468 229.748,45.468C235.187,45.468 239.649,43.985 239.649,36.054C239.649,28.153 235.187,26.672 229.748,26.672ZM229.748,40.033C227.819,40.033 227.215,38.641 227.215,36.373C227.215,34.106 227.819,32.741 229.748,32.741C231.655,32.741 232.26,34.106 232.26,36.373C232.26,38.641 231.655,40.033 229.748,40.033Z" style="fill:white;"/>
                </g>
                <g id="_132475936" transform="matrix(1.47778,0,0,1.47778,399.481,72.2828)">
                    <path d="M115.922,44.858L115.922,27.281L123.196,27.281L123.196,30.706L123.244,30.706C124.635,28.384 126.17,27.019 129.214,27.019C132.096,27.019 135.513,27.862 135.513,33.585L135.513,44.858L127.634,44.858L127.634,36.693C127.634,34.572 126.962,32.966 125.611,32.966C124.311,32.966 123.8,34.572 123.8,36.113L123.8,44.858L115.922,44.858Z" style="fill:white;"/>
                </g>
                <g id="_182427816" transform="matrix(1.47778,0,0,1.47778,399.481,72.2828)">
                    <path d="M106.341,27.281L106.341,29.921L106.296,29.921C105.04,27.631 103.087,27.019 100.903,27.019C95.88,27.019 93.837,30.36 93.837,36.199C93.837,42.301 96.092,45.468 101.228,45.468C103.087,45.468 105.41,44.943 106.296,42.793L106.341,42.793L106.341,44.858L114.013,44.858L114.013,27.281L106.341,27.281L106.341,27.281ZM104.04,40.382C102.39,40.382 101.508,39.366 101.508,36.952C101.508,34.395 102.39,33.352 104.04,33.352C105.69,33.352 106.574,34.395 106.574,36.952C106.574,39.366 105.69,40.382 104.04,40.382Z" style="fill:white;"/>
                </g>
                <g id="_181161704" transform="matrix(1.47778,0,0,1.47778,399.481,72.2828)">
                    <path d="M63.297,44.87L63.297,23.949L74.266,23.949L77.752,34.758L77.801,34.758L81.213,23.949L92.104,23.949L92.104,44.87L84.183,44.87L84.183,33.702L80.96,44.87L75.187,44.87L71.216,33.702L71.217,44.87L63.297,44.87Z" style="fill:white;"/>
                </g>
            </g>
        </g>
    </g>
</svg>
