<?xml version="1.0" encoding="UTF-8" standalone="no"?>
<!DOCTYPE svg PUBLIC "-//W3C//DTD SVG 1.1//EN" "http://www.w3.org/Graphics/SVG/1.1/DTD/svg11.dtd">
<svg width="100%" height="100%" viewBox="0 0 149 42" version="1.1" xmlns="http://www.w3.org/2000/svg" xmlns:xlink="http://www.w3.org/1999/xlink" xml:space="preserve" xmlns:serif="http://www.serif.com/" style="fill-rule:evenodd;clip-rule:evenodd;stroke-linejoin:round;stroke-miterlimit:2;">
    <g transform="matrix(1,0,0,1,-268.166,-84.6288)">
        <g transform="matrix(0.397897,0,0,0.397897,263.803,-28.6422)">
            <path d="M144.981,385.399L166.579,288.084L193.196,288.087L181.593,339.846L203.092,313.893L232.853,313.893L206.147,346.339L217.157,385.4L190.6,385.4L179.624,348.391L170.931,385.4L144.981,385.4L144.981,385.399ZM48.872,336.484L67.626,385.398L93.135,385.398L115.118,288.083L88.845,288.086L77.724,337.587L59.32,288.055L32.683,288.055L10.965,385.399L37.753,385.399C40.794,369.802 44.864,353.329 48.872,336.484ZM132.235,385.399L148.17,313.932L122.026,313.932L106.094,385.399L132.235,385.399ZM123.366,298.275C123.366,300.518 123.893,308.447 138.201,308.447C150.086,308.447 154.669,300.831 154.669,295.145C154.669,291.317 151.54,284.674 139.828,284.674C129.04,284.675 123.366,291.888 123.366,298.275ZM374.819,312.968C363.641,309.639 349.789,315.162 342.952,324.625C343.616,321.692 344.326,318.281 345.129,314.353L318.6,314.353L303.075,385.399L329.476,385.399L338.283,345.103C339.902,337.687 345.865,334.518 351.146,335.883C353.423,336.499 356.555,338.22 355.518,344.399L346.557,385.398L372.647,385.398L384.606,330.681C387.14,318.622 377.236,313.692 374.819,312.968ZM286.046,378.954C297.507,369.582 303.175,353.736 302.993,338.827C302.799,324.497 290.663,310.904 269.55,310.904C229.303,310.904 223.449,342.275 222.286,348.001C219.339,362.485 222.617,381.285 241.522,386.267C253.996,389.56 273.502,389.203 286.046,378.954ZM256.521,337.533C258.413,332.32 263.564,331.166 265.892,331.143C271.661,331.094 273.24,334.515 272.738,337.738C271.35,346.673 268.255,358.011 267.112,361.625C267.098,361.673 267.089,361.719 267.075,361.759C265.818,365.706 262.099,368.004 257.721,368.004C253.289,368.004 250.61,365.217 250.992,361.665C251.642,355.669 255.438,340.512 256.521,337.533Z" style="fill:white;fill-rule:nonzero;"/>
        </g>
    </g>
</svg>
