<?xml version="1.0" encoding="UTF-8" standalone="no"?>
<!DOCTYPE svg PUBLIC "-//W3C//DTD SVG 1.1//EN" "http://www.w3.org/Graphics/SVG/1.1/DTD/svg11.dtd">
<svg width="100%" height="100%" viewBox="0 0 80 34" version="1.1" xmlns="http://www.w3.org/2000/svg" xmlns:xlink="http://www.w3.org/1999/xlink" xml:space="preserve" xmlns:serif="http://www.serif.com/" style="fill-rule:evenodd;clip-rule:evenodd;stroke-linejoin:round;stroke-miterlimit:2;">
    <g transform="matrix(1,0,0,1,-268.166,-139.764)">
        <g transform="matrix(0.555746,0,0,0.555746,267.276,137.263)">
            <path d="M145.4,25.7L133.3,25.7L111.1,40.9L88.7,25.5L60.4,45L88.8,64.6L145.4,25.7M88.9,56.2L72.5,45L88.7,33.9L105,45.2L88.9,56.2Z" style="fill:white;fill-rule:nonzero;"/>
            <path d="M86.6,24L58.1,4.5L1.6,43.4L13.7,43.4L35.9,28.1L58.3,43.5L86.6,24ZM58.1,12.8L74.5,24L58.3,35.2L41.9,24L58.1,12.8Z" style="fill:white;fill-rule:nonzero;"/>
        </g>
    </g>
</svg>
