<?xml version="1.0" encoding="UTF-8" standalone="no"?>
<!DOCTYPE svg PUBLIC "-//W3C//DTD SVG 1.1//EN" "http://www.w3.org/Graphics/SVG/1.1/DTD/svg11.dtd">
<svg width="100%" height="100%" viewBox="0 0 176 38" version="1.1" xmlns="http://www.w3.org/2000/svg" xmlns:xlink="http://www.w3.org/1999/xlink" xml:space="preserve" xmlns:serif="http://www.serif.com/" style="fill-rule:evenodd;clip-rule:evenodd;stroke-linejoin:round;stroke-miterlimit:2;">
    <g transform="matrix(1,0,0,1,-28.7336,-36)">
        <g transform="matrix(0.648867,0,0,0.648867,-17.336,-6.82524)">
            <g transform="matrix(0.223881,0,0,0.223881,-71.5344,-412.362)">
                <path d="M1517.59,2396.51L1516.93,2391.01C1518.21,2391.36 1519.33,2391.53 1520.29,2391.53C1521.59,2391.53 1522.63,2391.32 1523.41,2390.88C1524.19,2390.45 1524.83,2389.84 1525.33,2389.06C1525.7,2388.47 1526.3,2387.02 1527.12,2384.7C1527.23,2384.37 1527.41,2383.89 1527.64,2383.27L1514.53,2348.63L1520.84,2348.63L1528.04,2368.65C1528.97,2371.19 1529.8,2373.86 1530.54,2376.66C1531.22,2373.97 1532.02,2371.34 1532.95,2368.78L1540.34,2348.63L1546.2,2348.63L1533.05,2383.79C1531.64,2387.58 1530.54,2390.2 1529.76,2391.63C1528.72,2393.56 1527.53,2394.98 1526.18,2395.88C1524.83,2396.78 1523.23,2397.23 1521.36,2397.23C1520.23,2397.23 1518.98,2396.99 1517.59,2396.51ZM636.719,2396.45L636.719,2348.63L642.057,2348.63L642.057,2353.12C643.316,2351.36 644.737,2350.05 646.322,2349.17C647.906,2348.29 649.826,2347.85 652.083,2347.85C655.035,2347.85 657.639,2348.61 659.896,2350.13C662.153,2351.65 663.856,2353.79 665.006,2356.56C666.157,2359.32 666.732,2362.36 666.732,2365.66C666.732,2369.19 666.097,2372.38 664.827,2375.21C663.558,2378.04 661.713,2380.21 659.294,2381.72C656.874,2383.23 654.329,2383.98 651.66,2383.98C649.707,2383.98 647.955,2383.57 646.403,2382.74C644.851,2381.92 643.576,2380.88 642.578,2379.62L642.578,2396.45L636.719,2396.45ZM823.967,2372.88L829.762,2371.97C830.087,2374.29 830.993,2376.07 832.48,2377.31C833.966,2378.55 836.044,2379.16 838.714,2379.16C841.405,2379.16 843.401,2378.62 844.703,2377.52C846.005,2376.42 846.656,2375.14 846.656,2373.66C846.656,2372.34 846.081,2371.3 844.931,2370.54C844.128,2370.02 842.132,2369.36 838.941,2368.55C834.645,2367.47 831.666,2366.53 830.006,2365.74C828.346,2364.94 827.087,2363.85 826.23,2362.45C825.373,2361.05 824.944,2359.5 824.944,2357.81C824.944,2356.27 825.297,2354.84 826.002,2353.53C826.707,2352.22 827.668,2351.13 828.883,2350.26C829.794,2349.59 831.037,2349.01 832.61,2348.55C834.183,2348.08 835.871,2347.85 837.672,2347.85C840.385,2347.85 842.766,2348.24 844.817,2349.02C846.868,2349.8 848.382,2350.86 849.358,2352.2C850.335,2353.53 851.007,2355.31 851.376,2357.55L845.647,2358.33C845.387,2356.55 844.633,2355.16 843.385,2354.16C842.137,2353.17 840.374,2352.67 838.095,2352.67C835.404,2352.67 833.484,2353.11 832.333,2354C831.183,2354.89 830.608,2355.93 830.608,2357.13C830.608,2357.89 830.847,2358.57 831.324,2359.18C831.802,2359.81 832.55,2360.33 833.57,2360.74C834.156,2360.96 835.882,2361.46 838.746,2362.24C842.891,2363.34 845.783,2364.25 847.421,2364.95C849.06,2365.66 850.345,2366.69 851.279,2368.03C852.212,2369.38 852.678,2371.05 852.678,2373.04C852.678,2375 852.109,2376.84 850.969,2378.56C849.83,2380.29 848.186,2381.62 846.038,2382.57C843.889,2383.51 841.459,2383.98 838.746,2383.98C834.254,2383.98 830.831,2383.05 828.476,2381.18C826.121,2379.32 824.618,2376.55 823.967,2372.88ZM887.33,2365.91C887.33,2359.51 889.11,2354.77 892.669,2351.69C895.642,2349.13 899.266,2347.85 903.541,2347.85C908.294,2347.85 912.179,2349.41 915.195,2352.52C918.212,2355.63 919.72,2359.94 919.72,2365.43C919.72,2369.88 919.052,2373.38 917.718,2375.93C916.383,2378.47 914.441,2380.45 911.891,2381.87C909.341,2383.28 906.558,2383.98 903.541,2383.98C898.702,2383.98 894.79,2382.43 891.806,2379.33C888.822,2376.22 887.33,2371.75 887.33,2365.91ZM1140.04,2372.88L1145.84,2371.97C1146.16,2374.29 1147.07,2376.07 1148.55,2377.31C1150.04,2378.55 1152.12,2379.16 1154.79,2379.16C1157.48,2379.16 1159.48,2378.62 1160.78,2377.52C1162.08,2376.42 1162.73,2375.14 1162.73,2373.66C1162.73,2372.34 1162.15,2371.3 1161.01,2370.54C1160.2,2370.02 1158.21,2369.36 1155.02,2368.55C1150.72,2367.47 1147.74,2366.53 1146.08,2365.74C1144.42,2364.94 1143.16,2363.85 1142.3,2362.45C1141.45,2361.05 1141.02,2359.5 1141.02,2357.81C1141.02,2356.27 1141.37,2354.84 1142.08,2353.53C1142.78,2352.22 1143.74,2351.13 1144.96,2350.26C1145.87,2349.59 1147.11,2349.01 1148.68,2348.55C1150.26,2348.08 1151.94,2347.85 1153.75,2347.85C1156.46,2347.85 1158.84,2348.24 1160.89,2349.02C1162.94,2349.8 1164.46,2350.86 1165.43,2352.2C1166.41,2353.53 1167.08,2355.31 1167.45,2357.55L1161.72,2358.33C1161.46,2356.55 1160.71,2355.16 1159.46,2354.16C1158.21,2353.17 1156.45,2352.67 1154.17,2352.67C1151.48,2352.67 1149.56,2353.11 1148.41,2354C1147.26,2354.89 1146.68,2355.93 1146.68,2357.13C1146.68,2357.89 1146.92,2358.57 1147.4,2359.18C1147.88,2359.81 1148.62,2360.33 1149.64,2360.74C1150.23,2360.96 1151.96,2361.46 1154.82,2362.24C1158.96,2363.34 1161.86,2364.25 1163.5,2364.95C1165.13,2365.66 1166.42,2366.69 1167.35,2368.03C1168.29,2369.38 1168.75,2371.05 1168.75,2373.04C1168.75,2375 1168.18,2376.84 1167.04,2378.56C1165.9,2380.29 1164.26,2381.62 1162.11,2382.57C1159.96,2383.51 1157.53,2383.98 1154.82,2383.98C1150.33,2383.98 1146.9,2383.05 1144.55,2381.18C1142.19,2379.32 1140.69,2376.55 1140.04,2372.88ZM805.372,2372.07L811.427,2372.82C810.472,2376.35 808.703,2379.1 806.121,2381.05C803.538,2383.01 800.239,2383.98 796.225,2383.98C791.168,2383.98 787.159,2382.43 784.197,2379.31C781.234,2376.2 779.753,2371.83 779.753,2366.21C779.753,2360.39 781.251,2355.88 784.246,2352.67C787.24,2349.45 791.125,2347.85 795.899,2347.85C800.522,2347.85 804.298,2349.42 807.227,2352.57C810.157,2355.72 811.622,2360.14 811.622,2365.85C811.622,2366.2 811.611,2366.72 811.589,2367.41L785.808,2367.41C786.025,2371.21 787.099,2374.12 789.031,2376.14C790.962,2378.16 793.371,2379.16 796.257,2379.16C798.406,2379.16 800.239,2378.6 801.759,2377.47C803.278,2376.34 804.482,2374.54 805.372,2372.07ZM1564.11,2383.2L1558.67,2383.2L1558.67,2335.48L1564.54,2335.48L1564.54,2352.5C1567.01,2349.4 1570.17,2347.85 1574.01,2347.85C1576.13,2347.85 1578.15,2348.28 1580.05,2349.14C1581.94,2349.99 1583.51,2351.2 1584.73,2352.75C1585.96,2354.3 1586.92,2356.17 1587.61,2358.36C1588.31,2360.55 1588.66,2362.9 1588.66,2365.39C1588.66,2371.32 1587.19,2375.9 1584.26,2379.13C1581.33,2382.37 1577.82,2383.98 1573.71,2383.98C1569.63,2383.98 1566.43,2382.28 1564.11,2378.87L1564.11,2383.2ZM1625.87,2378.94C1623.7,2380.78 1621.61,2382.08 1619.61,2382.84C1617.6,2383.6 1615.44,2383.98 1613.14,2383.98C1609.35,2383.98 1606.43,2383.05 1604.39,2381.2C1602.35,2379.34 1601.33,2376.97 1601.33,2374.09C1601.33,2372.39 1601.71,2370.85 1602.48,2369.45C1603.25,2368.05 1604.26,2366.92 1605.51,2366.08C1606.76,2365.23 1608.16,2364.59 1609.73,2364.16C1610.88,2363.85 1612.61,2363.56 1614.93,2363.28C1619.66,2362.71 1623.15,2362.04 1625.38,2361.26C1625.4,2360.46 1625.41,2359.95 1625.41,2359.73C1625.41,2357.34 1624.86,2355.66 1623.76,2354.68C1622.26,2353.36 1620.03,2352.7 1617.08,2352.7C1614.33,2352.7 1612.29,2353.18 1610.98,2354.15C1609.67,2355.11 1608.69,2356.82 1608.07,2359.28L1602.34,2358.49C1602.86,2356.04 1603.71,2354.06 1604.91,2352.55C1606.1,2351.04 1607.83,2349.88 1610.08,2349.07C1612.34,2348.26 1614.95,2347.85 1617.93,2347.85C1620.88,2347.85 1623.28,2348.2 1625.12,2348.89C1626.97,2349.59 1628.32,2350.46 1629.19,2351.51C1630.06,2352.56 1630.67,2353.89 1631.01,2355.5C1631.21,2356.5 1631.31,2358.3 1631.31,2360.9L1631.31,2368.72C1631.31,2374.16 1631.43,2377.61 1631.68,2379.05C1631.93,2380.49 1632.42,2381.88 1633.16,2383.2L1627.04,2383.2C1626.43,2381.99 1626.05,2380.56 1625.87,2378.94ZM1231.95,2383.2L1231.95,2378.12C1229.26,2382.03 1225.61,2383.98 1220.98,2383.98C1218.94,2383.98 1217.04,2383.59 1215.27,2382.81C1213.5,2382.03 1212.19,2381.05 1211.33,2379.86C1210.47,2378.68 1209.87,2377.23 1209.52,2375.52C1209.29,2374.37 1209.17,2372.55 1209.17,2370.05L1209.17,2348.63L1215.03,2348.63L1215.03,2367.8C1215.03,2370.86 1215.14,2372.93 1215.38,2373.99C1215.75,2375.53 1216.53,2376.74 1217.73,2377.62C1218.92,2378.5 1220.4,2378.94 1222.15,2378.94C1223.91,2378.94 1225.56,2378.49 1227.1,2377.59C1228.64,2376.68 1229.73,2375.46 1230.37,2373.91C1231.01,2372.36 1231.33,2370.1 1231.33,2367.15L1231.33,2348.63L1237.19,2348.63L1237.19,2383.2L1231.95,2383.2ZM1001.28,2378.94C999.109,2380.78 997.021,2382.08 995.013,2382.84C993.006,2383.6 990.852,2383.98 988.552,2383.98C984.754,2383.98 981.835,2383.05 979.795,2381.2C977.755,2379.34 976.735,2376.97 976.735,2374.09C976.735,2372.39 977.12,2370.85 977.891,2369.45C978.661,2368.05 979.67,2366.92 980.918,2366.08C982.166,2365.23 983.571,2364.59 985.134,2364.16C986.284,2363.85 988.02,2363.56 990.342,2363.28C995.073,2362.71 998.556,2362.04 1000.79,2361.26C1000.81,2360.46 1000.82,2359.95 1000.82,2359.73C1000.82,2357.34 1000.27,2355.66 999.164,2354.68C997.666,2353.36 995.442,2352.7 992.49,2352.7C989.734,2352.7 987.7,2353.18 986.387,2354.15C985.074,2355.11 984.103,2356.82 983.473,2359.28L977.744,2358.49C978.265,2356.04 979.122,2354.06 980.316,2352.55C981.509,2351.04 983.235,2349.88 985.492,2349.07C987.749,2348.26 990.364,2347.85 993.337,2347.85C996.288,2347.85 998.686,2348.2 1000.53,2348.89C1002.38,2349.59 1003.73,2350.46 1004.6,2351.51C1005.47,2352.56 1006.08,2353.89 1006.42,2355.5C1006.62,2356.5 1006.72,2358.3 1006.72,2360.9L1006.72,2368.72C1006.72,2374.16 1006.84,2377.61 1007.09,2379.05C1007.34,2380.49 1007.83,2381.88 1008.57,2383.2L1002.45,2383.2C1001.84,2381.99 1001.45,2380.56 1001.28,2378.94ZM1429.98,2372.07L1436.03,2372.82C1435.08,2376.35 1433.31,2379.1 1430.73,2381.05C1428.14,2383.01 1424.84,2383.98 1420.83,2383.98C1415.77,2383.98 1411.76,2382.43 1408.8,2379.31C1405.84,2376.2 1404.36,2371.83 1404.36,2366.21C1404.36,2360.39 1405.86,2355.88 1408.85,2352.67C1411.85,2349.45 1415.73,2347.85 1420.5,2347.85C1425.13,2347.85 1428.9,2349.42 1431.83,2352.57C1434.76,2355.72 1436.23,2360.14 1436.23,2365.85C1436.23,2366.2 1436.21,2366.72 1436.19,2367.41L1410.41,2367.41C1410.63,2371.21 1411.7,2374.12 1413.63,2376.14C1415.57,2378.16 1417.98,2379.16 1420.86,2379.16C1423.01,2379.16 1424.84,2378.6 1426.36,2377.47C1427.88,2376.34 1429.09,2374.54 1429.98,2372.07ZM1318.66,2365.91C1318.66,2359.51 1320.44,2354.77 1324,2351.69C1326.98,2349.13 1330.6,2347.85 1334.88,2347.85C1339.63,2347.85 1343.51,2349.41 1346.53,2352.52C1349.55,2355.63 1351.05,2359.94 1351.05,2365.43C1351.05,2369.88 1350.39,2373.38 1349.05,2375.93C1347.72,2378.47 1345.78,2380.45 1343.23,2381.87C1340.67,2383.28 1337.89,2383.98 1334.88,2383.98C1330.04,2383.98 1326.12,2382.43 1323.14,2379.33C1320.16,2376.22 1318.66,2371.75 1318.66,2365.91ZM708.871,2365.91C708.871,2359.51 710.65,2354.77 714.209,2351.69C717.182,2349.13 720.807,2347.85 725.082,2347.85C729.834,2347.85 733.719,2349.41 736.735,2352.52C739.752,2355.63 741.26,2359.94 741.26,2365.43C741.26,2369.88 740.593,2373.38 739.258,2375.93C737.924,2378.47 735.981,2380.45 733.431,2381.87C730.881,2383.28 728.098,2383.98 725.082,2383.98C720.242,2383.98 716.331,2382.43 713.347,2379.33C710.363,2376.22 708.871,2371.75 708.871,2365.91ZM1276.33,2383.2L1276.33,2378.84C1274.14,2382.27 1270.91,2383.98 1266.66,2383.98C1263.91,2383.98 1261.37,2383.22 1259.06,2381.7C1256.75,2380.18 1254.96,2378.06 1253.69,2375.34C1252.42,2372.62 1251.79,2369.49 1251.79,2365.95C1251.79,2362.5 1252.36,2359.37 1253.51,2356.56C1254.66,2353.75 1256.39,2351.59 1258.69,2350.1C1260.99,2348.6 1263.56,2347.85 1266.4,2347.85C1268.49,2347.85 1270.34,2348.29 1271.97,2349.17C1273.6,2350.05 1274.92,2351.19 1275.94,2352.6L1275.94,2335.48L1281.77,2335.48L1281.77,2383.2L1276.33,2383.2ZM1712.44,2372.07L1718.5,2372.82C1717.54,2376.35 1715.78,2379.1 1713.19,2381.05C1710.61,2383.01 1707.31,2383.98 1703.3,2383.98C1698.24,2383.98 1694.23,2382.43 1691.27,2379.31C1688.31,2376.2 1686.83,2371.83 1686.83,2366.21C1686.83,2360.39 1688.32,2355.88 1691.32,2352.67C1694.31,2349.45 1698.2,2347.85 1702.97,2347.85C1707.59,2347.85 1711.37,2349.42 1714.3,2352.57C1717.23,2355.72 1718.69,2360.14 1718.69,2365.85C1718.69,2366.2 1718.68,2366.72 1718.66,2367.41L1692.88,2367.41C1693.1,2371.21 1694.17,2374.12 1696.1,2376.14C1698.03,2378.16 1700.44,2379.16 1703.33,2379.16C1705.48,2379.16 1707.31,2378.6 1708.83,2377.47C1710.35,2376.34 1711.55,2374.54 1712.44,2372.07ZM1196.04,2377.96L1196.89,2383.14C1195.24,2383.48 1193.76,2383.66 1192.46,2383.66C1190.33,2383.66 1188.68,2383.32 1187.51,2382.65C1186.34,2381.97 1185.51,2381.09 1185.04,2379.99C1184.56,2378.9 1184.32,2376.59 1184.32,2373.08L1184.32,2353.19L1180.02,2353.19L1180.02,2348.63L1184.32,2348.63L1184.32,2340.07L1190.15,2336.55L1190.15,2348.63L1196.04,2348.63L1196.04,2353.19L1190.15,2353.19L1190.15,2373.4C1190.15,2375.07 1190.25,2376.15 1190.46,2376.62C1190.66,2377.1 1191,2377.48 1191.47,2377.76C1191.93,2378.05 1192.6,2378.19 1193.47,2378.19C1194.12,2378.19 1194.98,2378.11 1196.04,2377.96ZM681.258,2383.2L681.258,2348.63L686.532,2348.63L686.532,2353.87C687.877,2351.42 689.12,2349.8 690.259,2349.02C691.398,2348.24 692.652,2347.85 694.019,2347.85C695.994,2347.85 698.001,2348.48 700.041,2349.74L698.023,2355.17C696.59,2354.33 695.158,2353.9 693.726,2353.9C692.445,2353.9 691.295,2354.29 690.275,2355.06C689.255,2355.83 688.528,2356.9 688.094,2358.27C687.443,2360.35 687.118,2362.63 687.118,2365.1L687.118,2383.2L681.258,2383.2ZM1092.32,2383.2L1092.32,2348.63L1098.18,2348.63L1098.18,2383.2L1092.32,2383.2ZM757.056,2383.2L757.056,2353.19L751.88,2353.19L751.88,2348.63L757.056,2348.63L757.056,2344.95C757.056,2342.63 757.262,2340.9 757.675,2339.78C758.239,2338.26 759.232,2337.03 760.653,2336.08C762.075,2335.14 764.066,2334.66 766.627,2334.66C768.276,2334.66 770.099,2334.86 772.095,2335.25L771.216,2340.36C770.001,2340.14 768.851,2340.04 767.766,2340.04C765.986,2340.04 764.728,2340.42 763.99,2341.18C763.252,2341.93 762.883,2343.36 762.883,2345.44L762.883,2348.63L769.621,2348.63L769.621,2353.19L762.883,2353.19L762.883,2383.2L757.056,2383.2ZM1375.05,2383.2L1361.9,2348.63L1368.09,2348.63L1375.51,2369.33C1376.31,2371.57 1377.05,2373.89 1377.72,2376.3C1378.24,2374.48 1378.97,2372.28 1379.9,2369.72L1387.59,2348.63L1393.61,2348.63L1380.52,2383.2L1375.05,2383.2ZM1657.52,2383.2L1644.37,2348.63L1650.55,2348.63L1657.98,2369.33C1658.78,2371.57 1659.52,2373.89 1660.19,2376.3C1660.71,2374.48 1661.44,2372.28 1662.37,2369.72L1670.05,2348.63L1676.08,2348.63L1662.99,2383.2L1657.52,2383.2ZM1780.04,2383.2L1780.04,2348.63L1785.9,2348.63L1785.9,2383.2L1780.04,2383.2ZM1045.66,2383.2L1045.66,2348.63L1050.94,2348.63L1050.94,2353.55C1053.48,2349.75 1057.14,2347.85 1061.94,2347.85C1064.02,2347.85 1065.94,2348.22 1067.69,2348.97C1069.43,2349.72 1070.74,2350.7 1071.61,2351.92C1072.48,2353.13 1073.08,2354.58 1073.43,2356.25C1073.65,2357.33 1073.76,2359.23 1073.76,2361.94L1073.76,2383.2L1067.9,2383.2L1067.9,2362.17C1067.9,2359.78 1067.67,2358 1067.21,2356.82C1066.76,2355.63 1065.95,2354.69 1064.79,2353.99C1063.63,2353.28 1062.27,2352.93 1060.7,2352.93C1058.21,2352.93 1056.05,2353.72 1054.24,2355.3C1052.43,2356.89 1051.52,2359.89 1051.52,2364.32L1051.52,2383.2L1045.66,2383.2ZM934.116,2383.2L934.116,2348.63L939.39,2348.63L939.39,2353.55C941.929,2349.75 945.596,2347.85 950.392,2347.85C952.476,2347.85 954.391,2348.22 956.138,2348.97C957.885,2349.72 959.192,2350.7 960.06,2351.92C960.928,2353.13 961.536,2354.58 961.883,2356.25C962.1,2357.33 962.209,2359.23 962.209,2361.94L962.209,2383.2L956.349,2383.2L956.349,2362.17C956.349,2359.78 956.121,2358 955.666,2356.82C955.21,2355.63 954.402,2354.69 953.241,2353.99C952.079,2353.28 950.718,2352.93 949.155,2352.93C946.66,2352.93 944.506,2353.72 942.694,2355.3C940.882,2356.89 939.976,2359.89 939.976,2364.32L939.976,2383.2L934.116,2383.2ZM867.205,2383.2L867.205,2348.63L873.064,2348.63L873.064,2383.2L867.205,2383.2ZM1733.38,2383.2L1733.38,2348.63L1738.66,2348.63L1738.66,2353.55C1741.2,2349.75 1744.86,2347.85 1749.66,2347.85C1751.74,2347.85 1753.66,2348.22 1755.4,2348.97C1757.15,2349.72 1758.46,2350.7 1759.33,2351.92C1760.19,2353.13 1760.8,2354.58 1761.15,2356.25C1761.37,2357.33 1761.48,2359.23 1761.48,2361.94L1761.48,2383.2L1755.62,2383.2L1755.62,2362.17C1755.62,2359.78 1755.39,2358 1754.93,2356.82C1754.48,2355.63 1753.67,2354.69 1752.51,2353.99C1751.35,2353.28 1749.99,2352.93 1748.42,2352.93C1745.93,2352.93 1743.77,2353.72 1741.96,2355.3C1740.15,2356.89 1739.24,2359.89 1739.24,2364.32L1739.24,2383.2L1733.38,2383.2ZM1298.54,2383.2L1298.54,2348.63L1304.4,2348.63L1304.4,2383.2L1298.54,2383.2ZM1486.59,2383.2L1473.44,2348.63L1479.62,2348.63L1487.04,2369.33C1487.85,2371.57 1488.59,2373.89 1489.26,2376.3C1489.78,2374.48 1490.51,2372.28 1491.44,2369.72L1499.12,2348.63L1505.14,2348.63L1492.06,2383.2L1486.59,2383.2ZM1023.2,2383.2L1023.2,2335.48L1029.06,2335.48L1029.06,2383.2L1023.2,2383.2ZM1000.79,2365.85C998.664,2366.72 995.474,2367.46 991.221,2368.06C988.812,2368.41 987.108,2368.8 986.11,2369.24C985.112,2369.67 984.342,2370.3 983.799,2371.14C983.256,2371.97 982.985,2372.9 982.985,2373.92C982.985,2375.49 983.577,2376.79 984.759,2377.83C985.942,2378.87 987.673,2379.39 989.951,2379.39C992.208,2379.39 994.216,2378.9 995.973,2377.91C997.731,2376.92 999.023,2375.57 999.847,2373.86C1000.48,2372.53 1000.79,2370.58 1000.79,2368L1000.79,2365.85ZM1625.38,2365.85C1623.26,2366.72 1620.07,2367.46 1615.81,2368.06C1613.4,2368.41 1611.7,2368.8 1610.7,2369.24C1609.7,2369.67 1608.93,2370.3 1608.39,2371.14C1607.85,2371.97 1607.58,2372.9 1607.58,2373.92C1607.58,2375.49 1608.17,2376.79 1609.35,2377.83C1610.53,2378.87 1612.26,2379.39 1614.54,2379.39C1616.8,2379.39 1618.81,2378.9 1620.57,2377.91C1622.32,2376.92 1623.61,2375.57 1624.44,2373.86C1625.07,2372.53 1625.38,2370.58 1625.38,2368L1625.38,2365.85ZM642.025,2366.11C642.025,2370.56 642.925,2373.85 644.727,2375.97C646.528,2378.1 648.709,2379.16 651.269,2379.16C653.874,2379.16 656.103,2378.06 657.959,2375.86C659.814,2373.66 660.742,2370.24 660.742,2365.62C660.742,2361.22 659.836,2357.92 658.024,2355.73C656.212,2353.53 654.047,2352.44 651.53,2352.44C649.034,2352.44 646.826,2353.61 644.906,2355.94C642.985,2358.27 642.025,2361.66 642.025,2366.11ZM1324.69,2365.91C1324.69,2370.34 1325.65,2373.66 1327.58,2375.86C1329.52,2378.06 1331.94,2379.16 1334.88,2379.16C1337.78,2379.16 1340.2,2378.06 1342.13,2375.84C1344.07,2373.63 1345.03,2370.26 1345.03,2365.72C1345.03,2361.45 1344.06,2358.21 1342.12,2356C1340.18,2353.8 1337.76,2352.7 1334.88,2352.7C1331.94,2352.7 1329.52,2353.8 1327.58,2355.99C1325.65,2358.18 1324.69,2361.49 1324.69,2365.91ZM1564.05,2365.66C1564.05,2369.8 1564.61,2372.8 1565.74,2374.64C1567.58,2377.66 1570.08,2379.16 1573.23,2379.16C1575.79,2379.16 1578,2378.05 1579.87,2375.83C1581.73,2373.6 1582.67,2370.29 1582.67,2365.88C1582.67,2361.37 1581.77,2358.04 1579.98,2355.89C1578.19,2353.74 1576.03,2352.67 1573.49,2352.67C1570.93,2352.67 1568.71,2353.78 1566.85,2356C1564.98,2358.23 1564.05,2361.45 1564.05,2365.66ZM714.893,2365.91C714.893,2370.34 715.859,2373.66 717.79,2375.86C719.721,2378.06 722.152,2379.16 725.082,2379.16C727.99,2379.16 730.409,2378.06 732.341,2375.84C734.272,2373.63 735.238,2370.26 735.238,2365.72C735.238,2361.45 734.267,2358.21 732.325,2356C730.382,2353.8 727.968,2352.7 725.082,2352.7C722.152,2352.7 719.721,2353.8 717.79,2355.99C715.859,2358.18 714.893,2361.49 714.893,2365.91ZM1257.81,2365.95C1257.81,2370.38 1258.74,2373.68 1260.61,2375.88C1262.47,2378.07 1264.68,2379.16 1267.21,2379.16C1269.78,2379.16 1271.95,2378.12 1273.74,2376.02C1275.53,2373.93 1276.43,2370.73 1276.43,2366.44C1276.43,2361.7 1275.52,2358.23 1273.69,2356.02C1271.87,2353.81 1269.62,2352.7 1266.95,2352.7C1264.35,2352.7 1262.17,2353.76 1260.43,2355.89C1258.68,2358.02 1257.81,2361.37 1257.81,2365.95ZM893.353,2365.91C893.353,2370.34 894.318,2373.66 896.25,2375.86C898.181,2378.06 900.612,2379.16 903.541,2379.16C906.449,2379.16 908.869,2378.06 910.801,2375.84C912.732,2373.63 913.698,2370.26 913.698,2365.72C913.698,2361.45 912.727,2358.21 910.784,2356C908.842,2353.8 906.428,2352.7 903.541,2352.7C900.612,2352.7 898.181,2353.8 896.25,2355.99C894.318,2358.18 893.353,2361.49 893.353,2365.91ZM786.134,2362.6L805.437,2362.6C805.177,2359.69 804.439,2357.51 803.223,2356.05C801.357,2353.8 798.937,2352.67 795.964,2352.67C793.273,2352.67 791.011,2353.57 789.177,2355.37C787.343,2357.17 786.329,2359.58 786.134,2362.6ZM1410.74,2362.6L1430.04,2362.6C1429.78,2359.69 1429.04,2357.51 1427.83,2356.05C1425.96,2353.8 1423.54,2352.67 1420.57,2352.67C1417.88,2352.67 1415.62,2353.57 1413.78,2355.37C1411.95,2357.17 1410.93,2359.58 1410.74,2362.6ZM1693.2,2362.6L1712.51,2362.6C1712.25,2359.69 1711.51,2357.51 1710.3,2356.05C1708.43,2353.8 1706.01,2352.67 1703.04,2352.67C1700.35,2352.67 1698.08,2353.57 1696.25,2355.37C1694.41,2357.17 1693.4,2359.58 1693.2,2362.6ZM989.398,2344.33L993.727,2335.22L1001.41,2335.22L994.248,2344.33L989.398,2344.33ZM1779.75,2344.33L1784.08,2335.22L1791.76,2335.22L1784.6,2344.33L1779.75,2344.33ZM1092.03,2344.33L1096.36,2335.22L1104.04,2335.22L1096.88,2344.33L1092.03,2344.33ZM1417.05,2344.33L1421.38,2335.22L1429.07,2335.22L1421.9,2344.33L1417.05,2344.33ZM867.205,2342.22L867.205,2335.48L873.064,2335.48L873.064,2342.22L867.205,2342.22ZM1298.54,2342.22L1298.54,2335.48L1304.4,2335.48L1304.4,2342.22L1298.54,2342.22ZM1117.86,2201.71C1116.46,2199.55 1114.86,2197.56 1113.08,2195.71C1104.75,2187.11 1093.65,2182.8 1079.77,2182.8C1072.11,2182.8 1065.34,2184.04 1059.47,2186.53C1055.06,2188.37 1051.01,2191.2 1047.3,2195.01C1043.6,2198.82 1040.67,2203.12 1038.53,2207.92C1035.66,2214.43 1034.23,2222.48 1034.23,2232.07C1034.23,2247.06 1038.36,2258.83 1046.63,2267.37C1054.89,2275.91 1066.03,2280.18 1080.03,2280.18C1093.86,2280.18 1104.91,2275.89 1113.18,2267.3C1121.44,2258.72 1125.57,2246.82 1125.57,2231.62C1125.57,2227.54 1125.28,2223.7 1124.69,2220.1L1161.59,2319.45L636.761,2319.33L636.653,2136.83L1093.71,2136.68L1117.86,2201.71ZM1498.63,2247.94L1517.13,2246.14C1518.25,2252.35 1520.51,2256.91 1523.91,2259.82C1527.32,2262.73 1531.91,2264.19 1537.69,2264.19C1543.81,2264.19 1548.43,2262.89 1551.53,2260.3C1554.64,2257.71 1556.19,2254.68 1556.19,2251.21C1556.19,2248.99 1555.54,2247.09 1554.23,2245.53C1552.92,2243.97 1550.64,2242.61 1547.39,2241.45C1545.16,2240.68 1540.09,2239.31 1532.16,2237.34C1521.97,2234.81 1514.82,2231.71 1510.71,2228.02C1504.93,2222.84 1502.04,2216.53 1502.04,2209.08C1502.04,2204.28 1503.4,2199.79 1506.12,2195.62C1508.84,2191.44 1512.76,2188.26 1517.87,2186.08C1522.99,2183.89 1529.17,2182.8 1536.4,2182.8C1548.22,2182.8 1557.12,2185.39 1563.1,2190.58C1569.07,2195.76 1572.21,2202.67 1572.51,2211.32L1553.49,2212.16C1552.68,2207.32 1550.93,2203.84 1548.26,2201.72C1545.58,2199.6 1541.57,2198.54 1536.21,2198.54C1530.69,2198.54 1526.36,2199.68 1523.24,2201.94C1521.22,2203.4 1520.22,2205.35 1520.22,2207.79C1520.22,2210.02 1521.16,2211.92 1523.04,2213.51C1525.44,2215.52 1531.27,2217.62 1540.52,2219.8C1549.77,2221.99 1556.61,2224.24 1561.04,2226.58C1565.47,2228.91 1568.94,2232.1 1571.45,2236.15C1573.95,2240.2 1575.2,2245.2 1575.2,2251.15C1575.2,2256.55 1573.7,2261.6 1570.71,2266.31C1567.71,2271.02 1563.47,2274.52 1557.99,2276.81C1552.51,2279.1 1545.68,2280.25 1537.5,2280.25C1525.59,2280.25 1516.45,2277.5 1510.07,2271.99C1503.69,2266.49 1499.88,2258.47 1498.63,2247.94ZM1688.02,2243.95L1706.45,2249.8C1703.63,2260.08 1698.93,2267.71 1692.35,2272.7C1685.78,2277.69 1677.44,2280.18 1667.33,2280.18C1654.83,2280.18 1644.55,2275.91 1636.5,2267.37C1628.45,2258.83 1624.42,2247.14 1624.42,2232.33C1624.42,2216.66 1628.47,2204.48 1636.57,2195.81C1644.66,2187.14 1655.3,2182.8 1668.49,2182.8C1680.01,2182.8 1689.37,2186.21 1696.56,2193.02C1700.84,2197.04 1704.06,2202.82 1706.2,2210.36L1687.38,2214.86C1686.26,2209.97 1683.94,2206.12 1680.41,2203.29C1676.87,2200.47 1672.58,2199.05 1667.53,2199.05C1660.55,2199.05 1654.88,2201.56 1650.54,2206.57C1646.19,2211.58 1644.02,2219.7 1644.02,2230.91C1644.02,2242.82 1646.16,2251.3 1650.44,2256.35C1654.72,2261.41 1660.29,2263.93 1667.14,2263.93C1672.19,2263.93 1676.54,2262.33 1680.18,2259.12C1683.82,2255.9 1686.43,2250.85 1688.02,2243.95ZM1214.56,2232.07C1214.56,2222.48 1215.99,2214.43 1218.86,2207.92C1221,2203.12 1223.92,2198.82 1227.63,2195.01C1231.33,2191.2 1235.39,2188.37 1239.8,2186.53C1245.67,2184.04 1252.43,2182.8 1260.1,2182.8C1273.98,2182.8 1285.08,2187.11 1293.41,2195.71C1301.74,2204.32 1305.9,2216.29 1305.9,2231.62C1305.9,2246.82 1301.77,2258.72 1293.5,2267.3C1285.24,2275.89 1274.19,2280.18 1260.36,2280.18C1246.35,2280.18 1235.22,2275.91 1226.95,2267.37C1218.69,2258.83 1214.56,2247.06 1214.56,2232.07ZM1316.89,2232.07C1316.89,2222.48 1318.33,2214.43 1321.2,2207.92C1323.34,2203.12 1326.26,2198.82 1329.97,2195.01C1333.67,2191.2 1337.73,2188.37 1342.14,2186.53C1348.01,2184.04 1354.77,2182.8 1362.44,2182.8C1376.31,2182.8 1387.41,2187.11 1395.74,2195.71C1404.07,2204.32 1408.24,2216.29 1408.24,2231.62C1408.24,2246.82 1404.11,2258.72 1395.84,2267.3C1387.58,2275.89 1376.53,2280.18 1362.69,2280.18C1348.69,2280.18 1337.56,2275.91 1329.29,2267.37C1321.03,2258.83 1316.89,2247.06 1316.89,2232.07ZM853.903,2232.07C853.903,2222.48 855.337,2214.43 858.207,2207.92C860.348,2203.12 863.271,2198.82 866.975,2195.01C870.679,2191.2 874.737,2188.37 879.148,2186.53C885.014,2184.04 891.781,2182.8 899.446,2182.8C913.321,2182.8 924.423,2187.11 932.753,2195.71C941.082,2204.32 945.247,2216.29 945.247,2231.62C945.247,2246.82 941.114,2258.72 932.849,2267.3C924.584,2275.89 913.535,2280.18 899.703,2280.18C885.7,2280.18 874.565,2275.91 866.3,2267.37C858.035,2258.83 853.903,2247.06 853.903,2232.07ZM1591.08,2278.58L1591.08,2260.53L1609.13,2260.53L1609.13,2278.58L1591.08,2278.58ZM1423.6,2278.58L1423.6,2185.18L1442.61,2185.18L1442.61,2262.71L1489.89,2262.71L1489.89,2278.58L1423.6,2278.58ZM1161.62,2278.58L1161.62,2200.34L1133.68,2200.34L1133.68,2184.41L1208.51,2184.41L1208.51,2200.34L1180.63,2200.34L1180.63,2278.58L1161.62,2278.58ZM1714.62,2278.58L1714.62,2261.43L1764.08,2200.34L1720.21,2200.34L1720.21,2184.41L1789.13,2184.41L1789.13,2199.18L1737.55,2262.71L1791.13,2262.71L1791.13,2278.58L1714.62,2278.58ZM674.989,2278.58L674.989,2184.41L705.501,2184.41C717.063,2184.41 724.6,2184.88 728.112,2185.82C733.508,2187.23 738.026,2190.31 741.666,2195.04C745.306,2199.77 747.126,2205.88 747.126,2213.38C747.126,2219.16 746.077,2224.02 743.978,2227.96C741.88,2231.9 739.214,2234.99 735.981,2237.24C732.748,2239.49 729.461,2240.98 726.121,2241.71C721.581,2242.61 715.008,2243.06 706.4,2243.06L694.003,2243.06L694.003,2278.58L674.989,2278.58ZM981.291,2278.58L981.291,2200.34L953.348,2200.34L953.348,2184.41L1028.18,2184.41L1028.18,2200.34L1000.31,2200.34L1000.31,2278.58L981.291,2278.58ZM762.808,2278.58L762.808,2184.41L781.822,2184.41L781.822,2221.47L819.079,2221.47L819.079,2184.41L838.093,2184.41L838.093,2278.58L819.079,2278.58L819.079,2237.4L781.822,2237.4L781.822,2278.58L762.808,2278.58ZM1336.49,2231.43C1336.49,2242.09 1338.95,2250.18 1343.87,2255.68C1348.8,2261.18 1355.05,2263.93 1362.63,2263.93C1370.21,2263.93 1376.43,2261.2 1381.29,2255.74C1386.15,2250.28 1388.58,2242.09 1388.58,2231.17C1388.58,2220.38 1386.21,2212.33 1381.48,2207.02C1376.75,2201.71 1370.47,2199.05 1362.63,2199.05C1354.79,2199.05 1348.48,2201.74 1343.68,2207.12C1338.88,2212.49 1336.49,2220.59 1336.49,2231.43ZM1234.15,2231.43C1234.15,2242.09 1236.61,2250.18 1241.54,2255.68C1246.46,2261.18 1252.71,2263.93 1260.29,2263.93C1267.87,2263.93 1274.09,2261.2 1278.95,2255.74C1283.82,2250.28 1286.25,2242.09 1286.25,2231.17C1286.25,2220.38 1283.88,2212.33 1279.15,2207.02C1274.41,2201.71 1268.13,2199.05 1260.29,2199.05C1252.46,2199.05 1246.14,2201.74 1241.34,2207.12C1236.55,2212.49 1234.15,2220.59 1234.15,2231.43ZM1053.82,2231.43C1053.82,2242.09 1056.28,2250.18 1061.21,2255.68C1066.13,2261.18 1072.39,2263.93 1079.97,2263.93C1087.55,2263.93 1093.77,2261.2 1098.63,2255.74C1103.49,2250.28 1105.92,2242.09 1105.92,2231.17C1105.92,2220.38 1103.55,2212.33 1098.82,2207.02C1094.09,2201.71 1087.8,2199.05 1079.97,2199.05C1072.13,2199.05 1065.81,2201.74 1061.02,2207.12C1056.22,2212.49 1053.82,2220.59 1053.82,2231.43ZM873.495,2231.43C873.495,2242.09 875.957,2250.18 880.882,2255.68C885.807,2261.18 892.059,2263.93 899.639,2263.93C907.219,2263.93 913.439,2261.2 918.3,2255.74C923.16,2250.28 925.59,2242.09 925.59,2231.17C925.59,2220.38 923.224,2212.33 918.492,2207.02C913.76,2201.71 907.476,2199.05 899.639,2199.05C891.802,2199.05 885.486,2201.74 880.689,2207.12C875.893,2212.49 873.495,2220.59 873.495,2231.43ZM694.003,2200.34L694.003,2227.06L704.409,2227.06C711.903,2227.06 716.914,2226.57 719.44,2225.58C721.967,2224.6 723.947,2223.06 725.382,2220.96C726.817,2218.86 727.534,2216.42 727.534,2213.64C727.534,2210.21 726.528,2207.38 724.515,2205.16C722.502,2202.93 719.954,2201.54 716.871,2200.98C714.601,2200.55 710.04,2200.34 703.188,2200.34L694.003,2200.34ZM1814.06,2167.93L1814.06,2146.75L1823.06,2146.75C1825.32,2146.75 1826.97,2146.94 1827.99,2147.32C1829.02,2147.7 1829.84,2148.38 1830.45,2149.35C1831.07,2150.32 1831.38,2151.43 1831.38,2152.69C1831.38,2154.28 1830.91,2155.59 1829.98,2156.62C1829.04,2157.66 1827.65,2158.31 1825.79,2158.58C1826.71,2159.12 1827.48,2159.71 1828.08,2160.36C1828.68,2161 1829.49,2162.15 1830.51,2163.8L1833.1,2167.93L1827.98,2167.93L1824.89,2163.32C1823.79,2161.67 1823.04,2160.64 1822.64,2160.21C1822.23,2159.78 1821.81,2159.49 1821.35,2159.33C1820.9,2159.17 1820.18,2159.09 1819.2,2159.09L1818.33,2159.09L1818.33,2167.93L1814.06,2167.93ZM1818.33,2155.71L1821.5,2155.71C1823.55,2155.71 1824.83,2155.62 1825.34,2155.45C1825.85,2155.27 1826.25,2154.97 1826.54,2154.55C1826.83,2154.13 1826.97,2153.6 1826.97,2152.96C1826.97,2152.25 1826.78,2151.67 1826.4,2151.24C1826.02,2150.8 1825.49,2150.52 1824.79,2150.41C1824.44,2150.36 1823.4,2150.33 1821.67,2150.33L1818.33,2150.33L1818.33,2155.71Z" style="fill:white;"/>
            </g>
            <g transform="matrix(0,-0.932837,-0.932837,0,336.437,66.5189)">
                <path d="M-4.391,-4.891C-1.691,-4.891 0.501,-2.699 0.501,0C0.501,2.699 -1.691,4.891 -4.391,4.891C-7.091,4.891 -9.283,2.699 -9.283,0C-9.283,-2.699 -7.091,-4.891 -4.391,-4.891ZM-4.391,-3.891C-6.539,-3.891 -8.283,-2.148 -8.283,0C-8.283,2.148 -6.539,3.891 -4.391,3.891C-2.243,3.891 -0.499,2.148 -0.499,0C-0.499,-2.148 -2.243,-3.891 -4.391,-3.891Z" style="fill:white;"/>
            </g>
        </g>
    </g>
</svg>
