<?xml version="1.0" encoding="UTF-8" standalone="no"?>
<!DOCTYPE svg PUBLIC "-//W3C//DTD SVG 1.1//EN" "http://www.w3.org/Graphics/SVG/1.1/DTD/svg11.dtd">
<svg width="100%" height="100%" viewBox="0 0 149 23" version="1.1" xmlns="http://www.w3.org/2000/svg" xmlns:xlink="http://www.w3.org/1999/xlink" xml:space="preserve" xmlns:serif="http://www.serif.com/" style="fill-rule:evenodd;clip-rule:evenodd;stroke-linejoin:round;stroke-miterlimit:2;">
    <g transform="matrix(1,0,0,1,-268.166,-241.691)">
        <g transform="matrix(0.14777,0,0,0.14777,262.92,235.204)">
            <path d="M223.7,47.2L180.8,195.5L213.7,195.5L222.8,164.1L285.6,164.1L294.7,195.5L327.6,195.5L284.7,47.2L223.7,47.2ZM231.5,134.1L247.7,78.1L260.7,78.1L276.9,134.1L231.5,134.1ZM35.5,78.1L89,78.1L89,195.5L121,195.5L121,78.1L174.6,78.1L174.6,47.2L35.5,47.2L35.5,78.1ZM678.1,143.7C684.7,139.7 689.1,134.3 691.6,126.9C693.5,121.4 694.4,115.6 694.4,99C694.4,82.4 693.4,76.5 691.6,71.1C686.1,55 671,47.2 645.7,47.2L567.2,47.2L567.2,195.5L599.2,195.5L599.2,150.8L644.4,150.8L666.9,195.5L702.2,195.5L676.6,144.7L678.1,143.7ZM659.9,113.2C655.9,119.4 648.9,119.9 640.9,119.9L599.2,119.9L599.2,78.1L640.9,78.1C648.9,78.1 655.9,78.6 659.9,84.8C661.8,87.7 662.4,91 662.4,99C662.3,107 661.8,110.3 659.9,113.2ZM1010.7,47.2L1010.7,148L955.8,47.2L916.2,47.2L916.2,195.5L948.2,195.5L948.2,94.7L1003.1,195.5L1042.7,195.5L1042.7,47.2L1010.7,47.2ZM440,133.1L411.1,47.2L361.1,47.2L361.1,195.5L393.1,195.5L393.1,80.1L423.1,169.3L456.7,169.3L486.7,80.1L486.7,195.5L518.7,195.5L518.7,47.2L468.7,47.2L440,133.1ZM803.2,43.9C775.4,43.9 749.5,46.2 738.7,73.3C734.9,82.8 734.3,93.1 734.3,121.3C734.3,149.5 734.9,159.8 738.7,169.3C749.5,196.5 775.4,198.7 803.2,198.7C831,198.7 856.9,196.4 867.7,169.3C871.5,159.8 872.1,149.5 872.1,121.3C872.1,93.1 871.5,82.8 867.7,73.3C856.9,46.1 831,43.9 803.2,43.9ZM838.4,152.1C834,166.1 818.2,168 803.2,168C788.2,168 772.4,166.1 768,152.1C766.4,146.8 766.4,136.2 766.4,121.4C766.4,106.6 766.4,95.9 768,90.7C772.4,76.7 788.2,74.8 803.2,74.8C818.2,74.8 834,76.7 838.4,90.7C840,96 840,106.6 840,121.4C840,136.1 840,146.9 838.4,152.1Z" style="fill:white;fill-rule:nonzero;"/>
        </g>
    </g>
</svg>
