<?xml version="1.0" encoding="UTF-8" standalone="no"?>
<!DOCTYPE svg PUBLIC "-//W3C//DTD SVG 1.1//EN" "http://www.w3.org/Graphics/SVG/1.1/DTD/svg11.dtd">
<svg width="100%" height="100%" viewBox="0 0 1023 166" version="1.1" xmlns="http://www.w3.org/2000/svg" xmlns:xlink="http://www.w3.org/1999/xlink" xml:space="preserve" xmlns:serif="http://www.serif.com/" style="fill-rule:evenodd;clip-rule:evenodd;stroke-linejoin:round;stroke-miterlimit:2;">
    <g transform="matrix(1,0,0,1,-0.882849,0)">
        <g transform="matrix(1,0,0,1,-1250.82,-2673.88)">
            <g id="path19945" transform="matrix(1,0,0,1,1250.82,2673.88)">
                <path d="M576.152,0C574.974,4.479 573.738,7.963 568.348,7.963C561.551,7.963 550.619,0.159 531.876,0.159C487.594,0.159 480.274,32.114 480.274,46.346C480.274,57.081 480.312,77.066 520.25,96.197L535.858,103.682C551.071,110.919 562.137,116.557 562.137,132.191C562.137,135.223 560.914,158.311 532.832,158.311C502.973,158.311 489.429,131.872 484.734,108.301L478.044,108.301L478.044,165.955L484.734,165.955C485.67,162.209 486.817,157.992 491.741,157.992C499.01,157.992 509.592,165.955 531.876,165.955C575.05,165.955 590.009,137.759 590.009,117.22C590.009,91.788 572.19,78.181 564.207,74.218L529.806,57.177C510.21,47.379 505.757,42.384 505.757,29.783C505.757,14.621 518.606,7.486 530.762,7.486C558.353,7.486 572.419,34.312 576.63,50.647L583.16,50.647L583.16,0L576.152,0ZM183.243,0.159C172.763,0.159 165.086,8.53 165.086,18.316C165.086,28.337 172.527,36.313 183.243,36.313C193.257,36.313 201.24,28.566 201.24,18.316C201.24,8.301 193.257,0.159 183.243,0.159ZM865.061,0.159C854.575,0.159 846.746,8.53 846.746,18.316C846.746,28.337 854.346,36.313 865.061,36.313C875.082,36.313 882.899,28.566 882.899,18.316C882.899,8.301 875.082,0.159 865.061,0.159ZM0.883,3.504L0.883,9.397C10.942,11.034 14.389,11.792 20.473,25.801L80.357,165.637L86.727,165.637L140.082,28.509C145.229,15.43 148.236,11.034 161.105,9.397L161.105,3.504L111.254,3.504L111.254,9.397C124.588,10.097 131.481,10.958 131.481,20.068C131.481,24.737 128.812,30.936 126.703,36.313L97.08,113.079L66.341,39.339C64.003,33.497 59.334,23.712 59.334,19.271C59.334,10.397 64.819,10.333 79.56,9.397L79.56,3.504L0.883,3.504ZM1005.85,30.101C996.437,30.101 988.493,37.307 988.493,47.143C988.493,57.024 996.437,64.344 1005.85,64.344C1015.19,64.344 1023.05,57.024 1023.05,47.143C1023.05,37.307 1015.19,30.101 1005.85,30.101ZM1005.85,32.968C1013.61,32.968 1019.71,39.027 1019.71,47.143C1019.71,55.355 1013.61,61.477 1005.85,61.477C998.023,61.477 991.837,55.355 991.837,47.143C991.837,39.027 998.023,32.968 1005.85,32.968ZM999.164,37.428L999.164,57.017L1002.19,57.017L1002.19,48.576L1005.69,48.576L1010.95,57.017L1014.29,57.017L1008.56,48.417C1011.46,48.054 1013.66,46.544 1013.66,43.002C1013.66,39.103 1011.48,37.428 1006.81,37.428L999.164,37.428ZM1002.19,39.976L1006.33,39.976C1008.41,39.976 1010.63,40.39 1010.63,42.843C1010.63,45.881 1008.39,46.028 1005.85,46.028L1002.19,46.028L1002.19,39.976ZM263.831,50.647C236.973,50.647 215.733,72.778 215.733,107.345C215.733,147.468 239.604,164.841 263.194,164.841C281.892,164.841 295.13,157.349 309.382,135.536L303.807,132.191C299.367,137.587 291.155,147.958 277.369,147.958C255.167,147.958 250.039,124.107 249.338,104.16L308.267,104.16C307.566,91.686 304.495,50.647 263.831,50.647ZM652.441,50.647C619.912,50.647 599.565,77.76 599.565,107.982C599.565,138.434 619.912,164.841 652.441,164.841C684.262,164.841 704.999,139.135 704.999,107.982C704.999,75.422 683.097,50.647 652.441,50.647ZM787.658,50.647C767.699,50.647 757.659,64.917 754.371,70.555L753.894,70.555L753.894,53.673L709.299,53.673L709.299,59.088C718.657,60.496 721.722,62.388 721.722,72.944L721.722,141.906C721.722,153.405 717.721,154.437 709.299,156.081L709.299,161.655L765.679,161.655L765.679,156.081C754.875,154.902 754.053,148.105 754.053,142.703L754.053,80.111C754.053,78.002 764.246,66.414 773.643,66.414C786.333,66.414 786.543,79.442 786.543,86.004L786.543,142.703C786.543,151.379 783.307,155.374 775.554,156.081L775.554,161.655L830.501,161.655L830.501,156.081C819.04,155.609 819.033,148.334 819.033,142.703L819.033,83.774C819.033,57.998 800.488,50.647 787.658,50.647ZM952.499,50.647C930.73,50.647 897.392,65.038 897.392,111.168C897.392,139.963 917.587,164.841 947.402,164.841C965.762,164.841 981.224,155.406 991.997,140.154L987.856,136.013C982.237,142.333 976.204,149.073 962.851,149.073C944.758,149.073 930.52,130.089 930.52,97.312C930.52,86.775 932.208,57.973 950.269,57.973C953.741,57.973 959.665,60.184 959.665,67.21C959.665,79.85 959.767,91.26 972.885,91.26C974.758,91.26 988.811,91.272 988.811,76.289C988.811,59.432 969.043,50.647 952.499,50.647ZM154.893,53.673L154.893,59.088C163.78,60.725 167.316,62.388 167.316,72.944L167.316,141.906C167.316,153.17 163.315,153.966 154.893,156.081L154.893,161.655L210.796,161.655L210.796,156.081C201.673,155.138 199.806,149.978 199.806,142.703L199.806,53.673L154.893,53.673ZM312.726,53.673L312.726,59.088C318.81,60.26 320.02,62.006 326.104,77.244L360.665,164.841L366.399,164.841L394.907,93.808L396.022,93.808L419.434,164.841L424.85,164.841L461.162,70.873C465.144,60.559 468.336,60.024 472.789,59.088L472.789,53.673L441.254,53.673L441.254,59.088C447.816,59.789 452.403,60.349 452.403,67.847C452.403,73.008 440.56,100.835 434.246,118.653L433.768,118.653C429.564,100.363 419.594,69.905 419.594,64.981C419.594,60.056 424.818,59.559 430.902,59.088L430.902,53.673L376.114,53.673L376.114,59.088C381.727,59.789 384.358,59.897 386.466,64.821C387.639,67.637 389.066,72.294 391.404,80.27L375.477,120.405C363.78,88.985 355.728,71.179 355.728,66.255C355.728,60.158 361.372,59.559 364.647,59.088L364.647,53.673L312.726,53.673ZM836.553,53.673L836.553,59.088C845.446,60.725 848.975,62.388 848.975,72.944L848.975,141.906C848.975,153.17 844.981,153.966 836.553,156.081L836.553,161.655L892.455,161.655L892.455,156.081C883.332,155.138 881.466,149.978 881.466,142.703L881.466,53.673L836.553,53.673ZM264.787,57.973C272.967,57.973 275.967,63.942 277.369,69.122C279.236,76.174 279.204,88.272 279.439,95.56L248.223,95.56C248.223,63.12 256.136,57.973 264.787,57.973ZM652.441,57.973C666.756,57.973 670.757,71.906 670.757,107.982C670.757,137.733 668.794,157.514 652.6,157.514C633.826,157.514 633.966,133.28 633.966,107.982C633.966,81.277 635.068,57.973 652.441,57.973Z" style="fill:white;fill-rule:nonzero;"/>
            </g>
        </g>
    </g>
</svg>
